<?xml version="1.0" encoding="utf-8"?>
<!-- Generator: Adobe Illustrator 21.0.2, SVG Export Plug-In . SVG Version: 6.00 Build 0)  -->
<svg version="1.1" id="new_york_3_Image" xmlns="http://www.w3.org/2000/svg" xmlns:xlink="http://www.w3.org/1999/xlink" x="0px"
	 y="0px" viewBox="0 0 7161 1373.2" style="enable-background:new 0 0 7161 1373.2;" xml:space="preserve">
<style type="text/css">
	.st0{fill:#2D91D5;}
</style>
<title>footer</title>
<path class="st0" d="M7153.8,1248.5c-2-10.8,0.8-17.8-0.8-26.1c-2.5-12.5-16.4-22.5-19.2-31.8c-2-6.5-1.4-15.4-2.4-22.8
	c-0.9-7-1.2-16.2-5.6-19.6c-5.4,16.2-1.6,33-6.4,48.9c-2.6,8.5-11.9,16.8-14.4,24.4c-2.4,7.4-2.1,18.4-3.2,26.9
	c-0.5,3.5-0.6,9.6-1.6,13.7c-2.8,0-5.7,0.3-8.5,0.7c-0.1-4.8-0.8-9.6-2-14.3c-4.2-2-10.7-1.7-16.9-1.6c-1.4,4-1.8,9-1.6,14.7
	c-5.4-2.4-7.9-7.7-13.6-9.8c-4.4,3.2-9,6-13.9,8.6c-1.4-0.4-2.6-0.7-3.3-0.8c-3.3-0.7-10.8-0.7-13.1-1.2s-1.9-1.4-4-1.6
	s-13.1-1.4-14.1-1.4s-2.1,0.9-3.7,1.2c-1.2,0-2.3,0-3.5-0.3c-1.9-4.8-2.9-10.3-7-14.2c-2.1-0.8-4.4-1-6.6-0.8v-0.6h3.3v-4.6h-3.3
	v-10.6h-0.1v-0.1h-28.6c-2-0.8-4-1.8-5.9-2.9v-4.5h3.3v-5.2h-3.3v-2c0.7-0.6,1.5-1.3,1.8-1.3c0.6,0,6.1-0.1,6.1-0.1
	c1.1-0.5,4.1-1.9,4.1-1.9v-4.3c1,1.1,7.7,4.2,7.7,4.2l1.4-6.2c0.8,1.1,8.3,4.6,8.3,4.6l2.6-5c2.1,1.3,10.2,4.4,10.2,4.4l1.8-5
	c-0.6-0.2-4.8-2.1-7.1-3.2c4.4-0.5,8.4-0.9,12.1-1.4c2,0.9,5.7,1.6,6.5,1.4c0-0.5,0.1-1.4,0.1-2.4c25.7-4.2,31.8-9.2,34.7-11.6
	c1,0.4,6.7,0,6.7,0v-3.3h3.3l-1-1.9h-3.2v-2.6c4.6-2.2,8.8-5.2,12.5-8.8l-1-2.5c-0.5,1.1-3.7,1.8-3.7,1.8l-1.2-1.2
	c1.3-1,2.4-2.2,3.3-3.5l-2.3-1.9c0.8-0.6,1.5-1.4,1.9-2.3l-1.6-1.1c-3.7,7.4-20.5,6.2-24.4,4.9c0.5-0.5,1.2-1.4,1.2-1.4l-1.8-1.6
	c0.7-0.8,1.3-1.8,1.8-2.8l-1.4-1.1c-0.7,1.4-1.6,2.8-4.7,3.3c-16.3,3-48.7-7.6-48.7-7.6v-3.3h-1.6l1-3.3h4.2v-3.9h-4.2l-1.2-3.6
	h-2.2v-2.5h3.7v-1.2h-3.7v-2.2h3.7v-1.2h-2.4l-1-0.6l-1.9,0.6h-25.8v-5.9h2.1v-5.4h-2.1v-2.4c1.2-0.2,2.3-0.4,3.4-0.7
	c1.5,1.1,3.6,2.4,3.6,2.4l2.1-2.7v-5c1,1,7.1,3.6,8.3,3.9c0.2-0.5,0.8-2.3,1-3.2c1.2-0.1,2.2-0.1,3.2-0.2c1.8,0.5,3.6,0.8,5.5,0.8
	v-1.5c1.8-0.3,3.6-0.7,5.4-1.2c2.4,0.4,4.8,0.6,7.2,0.6v-3l0.2-0.1c26.5-6.1,40.2-13.5,47.7-19.6h6v-3.2h2.7v-1.9h-1.7v-2.7
	c7.4-5.4,10.5-9.9,10.5-9.9l-0.6-1.3c-1.1,0.6-2.3,1-3.5,1.2c0,0-0.8-1.1-1.2-1.5c0.8-0.7,1.5-1.4,2.1-2.2l-1.3-1.6
	c0.9-0.7,1.6-1.6,2.1-2.7l-1.2-0.8c-0.9,1.6-2.6,2.7-4.5,2.9c-14.8,1.6-25.5-1.1-27.7-2.5c0.9-0.6,1.7-1.4,2.2-2.3l-0.9-1.1
	c0.7-0.7,1.2-1.5,1.8-2.3l-1-0.9c-1.6,2.1-3.3,3-9,2.1c-35.8-5.8-104-54.8-104-54.8h-2.8v-12.1h-9.9l-0.7-7.7l-6.2-3v-3
	c1.4-0.5,4.6-2.1,4.9-3.2s0.9-6.5,0.5-7.9l-0.3,0.2v-0.2h0.2l-0.2-0.2l0,0l0,0l-6.2-6.1c2,0,4-0.1,6-0.4c1.5-0.3,1.1-1.5,1.1-3.2
	c0.1-0.9,0.1-1.7-0.1-2.6h0.3l-8.3-6.8c2.3,0,4.5-0.1,6.8-0.4c1.5-0.3,1.1-0.9,1.1-2.6V939c0-1.5,0.3-2.1-0.6-2.5h0.2l-7.3-6.5
	c2.1,0,4.1-0.2,6.1-0.4c1.4-0.3,1-0.9,1-2.6v-1.2c0-0.6,0-1.2,0-1.8h0.1l-0.1-0.1c-0.1-0.3-0.4-0.6-0.7-0.6l-6.7-6c2,0,4-0.2,6-0.4
	c1.4-0.3,1-0.9,1-2.6v-1.2c0.1-0.7,0.1-1.3-0.1-2l0,0l-0.2-0.2l-0.1-0.1l-6.6-6.3c1.9,0,3.8-0.2,5.8-0.4c1.3-0.3,1-0.9,1-2.6v-1.2
	c0.1-0.6,0.1-1.3,0-2h0.2l-7.8-7l0,0c2.1,0,4.2-0.1,6.2-0.4c1.3-0.3,1-0.9,1-2.6v-1.2c0-1.7,0.3-2.3-1-2.6h-0.1l-5.8-5.7
	c1.8,0,3.6-0.1,5.4-0.4c1.2-0.3,0.9-0.9,0.9-2.6v-1.2c0-0.7,0-1.2,0-1.5h0.2l-0.3-0.3c-0.1-0.4-0.3-0.6-0.8-0.8l-5.8-5.7
	c1.8,0,3.5-0.2,5.3-0.4c1.2-0.3,0.9-0.9,0.9-2.6v-1.2c0-1.7,0.3-2.3-0.9-2.6h-0.1l-5.8-5.5v-0.1c1.8,0,3.7-0.1,5.5-0.4
	c1.1-0.3,0.8-0.9,0.8-2.6v-1.2c0.1-0.7,0-1.3-0.1-2h0.2l-6.6-6.5v-0.5c2.9-0.2,4.3-1.2,4.3-4.2V816c0-3.1-1.5-4.1-4.7-4.2v0.2v-2.7
	c-1.2,0-2.5,0.2-3.7,0.4v2.3v-0.2c-3.2,0.1-4.7,1.1-4.7,4.2v20.2c0,3,1.4,4,4.3,4.2v0.3l-6.3,6.5l0,0l-0.3,0.3h0.1
	c-0.1,0.7-0.1,1.3,0,2v1.2c0,1.7-0.3,2.3,0.8,2.6c1.8,0.3,3.6,0.4,5.4,0.4l-5.6,5.6h-0.1c-1.2,0.3-0.9,0.9-0.9,2.6v1.3
	c0,1.7-0.3,2.3,0.9,2.6c1.7,0.3,3.4,0.4,5.1,0.4l-5.5,5.7c-0.6,0.2-0.8,0.4-0.9,0.9l-0.2,0.2h0.1c0,0.4,0,0.9,0,1.5v1.2
	c0,1.7-0.3,2.3,0.9,2.6c1.7,0.3,3.5,0.4,5.2,0.4l-5.5,5.7h-0.1c-1.3,0.3-0.9,0.9-0.9,2.6v1.2c0,1.7-0.3,2.3,0.9,2.6
	c2,0.3,4,0.4,6,0.4l-7,6.5c-0.1,0.1-0.2,0.2-0.3,0.3l-0.1,0.1h0.1c-0.1,0.6-0.1,1.3,0,2v1.2c0,1.7-0.3,2.3,1,2.6
	c1.8,0.2,3.7,0.4,5.6,0.4l-6.2,6.2c-0.9,0.4-0.6,1-0.6,2.5v1.2c0,1.7-0.3,2.3,1,2.6c1.9,0.3,3.9,0.4,5.9,0.4l-6.4,6
	c-1.2,0.3-0.9,1-0.9,2.6v1.2c0,1.7-0.4,2.3,1,2.6c2,0.3,4,0.4,6,0.4l-6.9,6.5h0.1c-0.9,0.4-0.6,1-0.6,2.5v1.2c0,1.7-0.4,2.3,1.1,2.6
	c2.2,0.3,4.4,0.4,6.6,0.4l-7.5,6.4c-0.1,0-0.1,0.1-0.2,0.1l-0.3,0.2h0.1c-0.2,0.8-0.2,1.6-0.1,2.4v0.8c0,1.7-0.4,2.3,1.1,2.6
	c1.9,0.2,3.9,0.4,5.8,0.4l-5.9,6.1h-0.8v0.5c-0.1,1.1-0.1,2.3,0,3.4v2.1h0.2c0.1,0.7,0.2,1.5,0.4,2.2c0.4,1,3.5,2.6,4.9,3.2v3
	l-6.2,3l-0.7,7.7h-9.8v12.1h-2.8c0,0-68.2,49-104,54.8c-5.7,0.9-7.5,0-9-2.1l-1,0.9c0.5,0.8,1.1,1.6,1.8,2.3l-0.9,1.1
	c0.6,0.9,1.3,1.7,2.2,2.3c-2.1,1.4-12.8,4.1-27.6,2.5c-1.9-0.2-3.5-1.3-4.5-2.9l-1.2,0.8c0.5,1.1,1.2,2,2.1,2.7l-1.3,1.6
	c0.6,0.8,1.3,1.6,2.1,2.2c-0.4,0.5-1.2,1.5-1.2,1.5c-1.2-0.1-2.4-0.5-3.5-1.2l-0.6,1.3c0,0,3,4.4,10.5,9.9v2.7h-1.7v1.9h2.7v3.2h6
	c7.5,6.1,21.1,13.4,47.7,19.6l0.2,0.1v3c2.4,0,4.9-0.1,7.2-0.6c1.8,0.6,3.6,1,5.4,1.2v1.4c1.9,0,3.7-0.3,5.5-0.8
	c1,0.1,2.1,0.1,3.2,0.2c0.3,0.8,0.9,2.7,1,3.2c1.2-0.3,7.3-2.8,8.3-3.9v5l2.1,2.7c0,0,2.1-1.3,3.6-2.4c1.1,0.3,2.3,0.5,3.4,0.7v2.4
	h-2.1v5.4h2.1v5.9h-25.9l-1.9-0.6l-1,0.6h-2.4v1.2h3.6v2.2h-3.7v1.2h3.7v2.5h-2.2l-1.2,3.6h-4.2v3.9h4.2l1.1,3.3h-1.6v3.3
	c0,0-32.3,10.6-48.7,7.6c-3.1-0.6-4-1.9-4.7-3.3l-1.4,1.1c0.4,1,1,2,1.8,2.8l-1.8,1.6c0,0,0.7,0.9,1.2,1.4
	c-3.9,1.2-20.7,2.4-24.4-4.9l-1.6,1.1c0.4,0.9,1.1,1.7,1.9,2.3l-2.3,1.9c1,1.3,2.1,2.5,3.4,3.5l-1.2,1.2c0,0-3.2-0.7-3.7-1.8l-1,2.5
	c3.6,3.6,7.9,6.6,12.5,8.8v2.6h-3.2l-1,1.9h3.3v3.3c0,0,5.6,0.4,6.7,0c2.9,2.3,9,7.4,34.7,11.6c0,0.9,0,1.9,0,2.4
	c0.8,0.2,4.5-0.5,6.5-1.4c3.7,0.5,7.7,1,12.1,1.4c-2.4,1.1-6.5,3-7.1,3.2l1.8,5c0,0,8.1-3.2,10.2-4.4l2.6,5c0,0,7.5-3.5,8.3-4.6
	l1.4,6.2c0,0,6.7-3.2,7.7-4.2v4.3l4.1,1.9l6.1,0.1c0.3,0,1.1,0.7,1.8,1.3v2h-3.3v5.2h3.3v7.4H6774v0.1l0,0v6
	c-3.7-0.8-7-2.2-10.5-3.3c-4.2,3-10.5,4-13.6,8.2c-1,4.7-0.8,10.6-4.8,12.2c-2-8.7-12.6-9.5-18.5-4.1c-1.1-2.3-4.4-1.6-5.6,0
	c-2.8-3.1-6.4-2.9-9.6-2.4c-3,0.4-3.6,3.2-6.4,4.1c-3.2,1.1-5.3-1-8,0.8c-1,2.4-0.9,5.9-0.8,9.3c-0.3-0.4-0.5-0.8-0.7-1.3l-2.5,1.8
	c0,0,1.2,2.5,2.3,2.8l-2.1,1.8c0.4,1,0.9,2,1.6,2.8l-3-0.3c-0.2,0.4-0.7,1.1-1.1,1.8c-1.3,0-2.6,0-3.8,0c-0.7,0-1.5,0.1-2.1,0.1
	c-1,0-0.9-1.1-1.6-1.2s-5.3,0-6.2-0.2c-3.1-0.9-6.2-1.9-9.1-3.2c-0.1,0-0.2-0.1-0.3-0.1c-0.3-7.2-1.5-13.1-7.4-12.5
	c-5.3,0.6-4.3,6.9-7.2,11.4l-0.5,0.1c-0.4,0-0.7,0-1,0c-2.1,0.2-3.7-1.4-4.9-1.8c-1.3-0.3-2.7-0.4-4-0.3c-0.9,0-16.2-2.5-18.6-1.9
	c-3.2,0.7-12.1,1.2-15.1,0.5c-4-1.1-8-1.8-12.1-2l-0.2-32.6h-4.6l0,0h-1.6l0,0l-1.1,2.6l0,0v15.6H6571v-11.3l-0.1-0.7l-0.1-0.3
	l-1.2-0.1h-74.4v-17.1l17.9-4.9l20.4-8l19.5-10.2l9.7-5.6l21.2-14.1v-4.2l-55.4,0.1l-1.3,2.1l-166.9,0.2l-4.8-2.1l-54.9,0.1v4.2
	l21,14l22.4,11.7l23.5,9.2l23.3,6.4l0.1,36.8H6364c-0.1-2.3-0.3-4.5-0.6-6.6c-9.3-1-19.6,0.1-30.1,0.6l-1.9-0.2l-10.7-0.1h-2.3
	c-0.2-3.2,0.7-7.4-0.8-9.3c-4.7-0.4-7.8-2.4-12-3.3c-3.6,2.5-4.9,7.5-5.6,13c-12.2,2.2-29.5-0.7-41.7,1.6
	c-2.8,5.8-3.1,14.3-3.2,22.8c-6.4-0.2-7.2,5.2-9.6,9c-0.1-0.3-0.3-0.5-0.4-0.8v-250.2c-2.5-1.3-7,2.3-8.4-1.3l-1.5-440.2h-5.7V450.3
	h-9.9v-92.6h-11.2v-62.5h-10.8V246h-8.1v-19l-9.9-8.5V209l-5.9-6.2v-8.4l-3.2-4.4v-7.9l-3.8-4.4l-0.3-10.5c3.5-1.9,4.8-6.3,2.9-9.8
	c-0.7-1.3-1.9-2.4-3.3-3.1l-2.4-83.7c1.7-1,2.3-3.2,1.4-4.9s-3.2-2.3-4.9-1.4c-1.7,1-2.3,3.2-1.4,4.9c0.4,0.6,0.9,1.2,1.6,1.5
	l-0.7,83.7c-3.5,1.8-4.9,6.2-3,9.7c0.7,1.3,1.7,2.3,2.9,3l-0.1,10.7l-3.6,4.4v8.4l-3.2,3.2v8.7l-6,5.5v10.4l-8.7,8.5v19.5h-8.2v51.1
	h-11V357h-9.1v92.2h-6.3v131.3h-4.5v171.7l-120.3,0.6V582.7h-6v-131h-8v-93.6h-11v-62.9h-12.3V245h-9.7v-20.5l-8-7v-10.2l-6.6-5.1
	v-9.5l-5.3-5.3V181h-3.2l-0.4-13.5c2.5-1.2,4.1-3.7,4.1-6.5c0-3-1.8-5.6-4.6-6.7l-2.8-87.5c1.8-0.8,2.7-2.9,1.9-4.8
	c-0.8-1.8-2.9-2.7-4.8-1.9c-1.8,0.8-2.7,2.9-1.9,4.8c0.4,1,1.3,1.8,2.4,2.1l-0.6,87.6c-3.6,1.7-5.2,6-3.5,9.6
	c0.7,1.5,1.9,2.7,3.4,3.4l-0.1,13.2h-3v6.8l-5.7,4.9v10.2l-6.4,3.8v11.4l-8,6.8V245h-8.3v50.4h-12.5v62.5h-11V451h-6.1v130.7h-4.9
	l1.9,301.8l-6.9,0.1v121.1c-2.6-1.7-4.7-6.8-8.2-8.2c-8.5-3.4-20.8,1-26,4.4c-4.4,2.8-6.7,9.5-9.6,8.7c-0.5-10.6,1-25.6-1-32.7
	c-7.1-1.4-12.5-6.7-18.3-10.9c-5.1,8.1-12.7,10.6-16.4,21.8c-1.2,12.5-0.9,28.4-5.8,32.7c-1.5-14.9-7.2-21.1-13-19.9l0.1-24.3v-2.6
	l0.5-94.5v-4.5l0.5-92.7v-2.3v-2.3l0.4-93.1V682l-45.9-30.8l0.1-32.3l0.3-85.6h-1.9l-0.3,85.8l-21.5,3.3l0.2-84.3h-1.6l-0.3,85.3
	l-0.7,10.5l-0.3,95.2v2.3v2.3l-0.3,92.5v2.2l-70.9,48.2v2.2l-0.1,28.7v10.6h-5.4v-114h-5.6l-2.7-385.5h-2.6l-0.8-118.1h-2.6
	l-2.9-51.4l-2.5-25.5l-8.4-30.1l-9.3-16.7v-8.2h-0.6l-0.4-2.9l-0.6-2.8l-0.8-2.8l-1-2.7l-1.2-2.7l-1.4-2.6l-1.6-2.5l-1.8-2.4l-2-2.4
	l-2.1-2.2l-2.3-2.1l-2.5-2v0.6l1.5,2.3l0.8,1.3l-2.4-2l-0.1,0.6l1.5,2.3l1,1.6l-0.2-0.2l-2.4-2v0.6l1.5,2.3l0.9,1.5l-0.1-0.1l-2.4-2
	l-0.1,0.6l1.5,2.3l1.1,1.9l-0.4-0.4l-2.4-2v0.6l1.5,2.3l1,1.6l-0.2-0.2l-2.4-2v0.6l1.5,2.2l0.9,1.6l-0.1-0.1l-2.4-2v0.6l1.5,2.2
	l1.4,2.3l1.2,2.4l1.1,2.4l1,2.4l0.8,2.5l0.3,1.1h-9.7v-7.3h-0.5v-2.7v-2.6v-2.5V151v-2.3v-2.1v-2l-0.1-1.8l-0.1-1.6l-0.1-1.5
	l-0.1-1.3l-0.1-1.1h-1.8v1.7v1.8v2v2.1v2.1v2.2v2.3v2.4v0.3h-4.8v-1V151v-2.3v-2.1v-2l-0.1-1.8l-0.1-1.6l-0.1-1.5l-0.1-1.3l-0.1-1.1
	h-1.8v1.7v1.9v1.9v2.1v2.1v2.2v2.3v2.7h-4.8v-1V151v-2.3v-2.1v-2v-1.8v-1.6v-1.5l-0.1-1.3l-0.1-1.1h-2.1v1.7v1.9v2v2.1v2.1v4.6v2.7
	h-5.2v-1V151v-2.3v-2.1v-2v-1.8v-1.6v-1.4v-1.3v-1.1h-1.8v1.7v1.8v2v2v2.1v4.6v2.7h-4.6v-1v-4.6v-2.1v-2v-1.8v-1.6v-1.4v-1.3v-1.1
	h-1.8v1.7v1.8v2v4.2v4.6v2.7h-4.9v-5.6v-2.1v-2v-1.8v-1.6v-1.5v-1.3v-1.1h-1.8v1.7v1.9v4v2.1v7v0.3h-4.5v-11.5v-1.6v-1.5v-1.3v-1.1
	h-1.8v3.6v6.2v9.5v7.8h0.1l-0.1,4.9h-12.3l0.3-1.1l0.8-2.5l1-2.4l1.1-2.4l1.2-2.4l1.4-2.3l1.5-2.2v-0.6l-2.2,1.8l0.8-1.2l1.5-2.2
	v-0.6l-2.2,1.8l0.8-1.3l1.5-2.2V149l-2.4,1.9l0.9-1.6l1.5-2.2v-0.6l-2.2,1.8l0.7-1.2l1.5-2.3v-0.6l-2.3,1.8l0.8-1.3l1.5-2.3v-0.6
	l-2.1,1.7l0.6-1l1.5-2.3v-0.6l-2.5,2l-2.3,2.1l-2.1,2.2l-2,2.3l-1.8,2.4l-1.6,2.5l-1.7,2.6l-1.2,2.7l-1,2.7l-0.8,2.8l-0.6,2.8
	l-0.4,2.9v8.1l0,0l-9.1,16.7l-8.2,30.2l-0.1,0.8l-0.3,2.4l-2.4,25.5l-0.2,3.1l-2.4,45h-2.3l-0.1,0.8l-0.3,2.4l-0.2,3.1l-0.5,111.8
	h-2l-0.4,2.6l-0.2,2.6l-2.8,561.3h-2.8v52.4h-12.8l-1-1030.2L5239,7l-3.6,992.4c-1.2,0-2.5-0.1-3.7-0.3c-0.4-8.7,0.9-20.9-1-26.2
	c-5.7-1-9.4-6.4-14.5-8.7c-2.5,3.9-4.1,10-5.1,17.3l2.5-25.2l-5.2-0.5l-0.5-117.8l2.7-25.2l-5.1-0.9l-0.5-103.7l2.8-20.6l-5.1-1.3
	l-0.2-56.7V603l2.7-19.5l-5.1-0.7l-0.4-64.4l2.7-19.3l-5-0.8l-0.3-37l2.7-17.9l-5-0.9l-0.2-29l2.7-17.7l-5-1l-0.1-23.8l2.7-17.6
	l-5-1l-0.1-11.1l2.7-17.5l-4.2-0.9l0.7-4.3l0,0l0.8-5.2l-1.3-0.3l1.8-11.5l-1.4-0.3l0.8-5l-0.7-0.2l-1.8-0.9l2.5-15.9l-0.7-0.2v-0.3
	l-1.8-0.9l2.4-15.5l-0.7-0.2l0.1-0.7l-2.6-1.3l2.5-15.9l-8.5-4.5l-1.5-0.8l2.2-16.6l-8.8-0.6l2-15l-10.7-0.8l1.9-14.3l-10.8-0.8
	l-1.2-2.4l-1.3,0.1l1.5-11.2l-7.7-0.6l-0.6-1.1l-4.6,0.4l-4-18.3v-5.3l-1-0.2l3-17.9h-1.5l2.3-19.4l-11.2,3.7l-3.3-49.3l-2.8,41.1
	h-0.1l-2.1,5l0.1,3.4l-9.6-1.7l1.5,10.4l-0.4-0.2l3.7,23.4l0.3,2.3l-1.8,1v0.6h-0.2l-4.1,18.9h-0.3l0.3,0.1l-1,4.6l-12.9,0.9
	l1.8,13.2l-13.7,1l1.9,14.3l-10.8,0.8l2,15l-8.9,0.6l2.2,16.7l-1.5,0.8l-8.5,4.5l2.5,15.9l-2.6,1.3l2.5,16l-2.6,1.3l2.5,16l-2.6,1.3
	l1.9,11.6l-0.4,0.2l1.3,8.3v0.9l-2.8,1.4l1.6,10.5l-2.4,1.1l2.7,17v0.3l-2.1,1l1.1,7.2l-1,0.5l0.3,2.2l-3.3,1.5l2.7,17.1l-0.1,20.7
	l-1.4,0.6l0.3,2.1l-3.8,1.6l2.7,17.2l-0.1,26.1l-0.9,0.4l0.2,2l-4.2,1.7l2.7,17.3l-0.1,34.1l-0.5,0.2l0.2,1.8l-4.7,1.7l2.7,18.8
	l-0.3,63.2l-4.9,1.6l2.7,19l-0.3,79.8l-5,1.3l2.7,20.6l-0.4,103.7l-5,0.9l2.7,25.2l-0.5,117.9l-5.1,0.5l2.7,28.2l-0.2,44.7
	c-1.7-0.1-3.3-0.3-5-0.6c4.7-36.8-13.2-29.4-23.1-26.2c-3.9,0,0,17.5-3.9,17.4H4998c-3.5-1.3,0,13-3.9,10.9h-0.8v124.1l-4.9-8.5
	l0.2-2l-0.5-3.7l-0.1-0.3l-1.4-3.5h-0.1l-2.2-2.8l-3-2.3l-1.9-0.8l-34-58.6l3.1-2.4l12.6-16.4l3.9-9.5l3.9-9.6l2.7-20.4h-0.2
	l-2.6-20.2l-4-9.5l-3.9-9.5l-12.4-16.4l-16.2-12.5l-0.9-0.4l-6.7-2.8l0.2-373.5l2.2-1.5l14.6-10.8l11.2-14.3l3.5-8.3l3.5-8.3l2.4-18
	l-0.1-1.4l0.1-1.5l-2.4-18.1l-7-16.7l-11.2-14.2l-3.3-2.7l-13.6-9.9l-4.7-1.7l-7.7-2.7l-3.5-30l3-0.8l2.4-1.2l1-1.3v-3.4l-0.5-1.3
	l-2-1.2l-3.3-1.1l-0.7-0.1l0.1-58.9c14.6-8.4,19.7-27,11.3-41.6c-3.7-6.5-9.6-11.3-16.7-13.7l0.1-59.8l5.4-0.7V223l-9.9-6l0.1-65.7
	l1.1-0.2l1.6-0.6l1.1-0.7l0.5-0.8v-0.8v-1.4l-0.2-0.8l-0.8-0.8l-1.4-0.7l-1.9-0.5l-1.2-0.2l0.2-128.3l-0.2-0.4l-0.5-0.3l-0.7-0.3
	l-0.9-0.2l-1-0.1h-1l-1,0.1l-1,0.2l-0.8,0.2l-0.6,0.3l-0.3,0.4v0.4l-0.2,128h-0.2l-2,0.4l-1.6,0.6l-1.1,0.7l-0.5,0.8v2.2l0.2,0.8
	l0.8,0.8l1.4,0.7l1.9,0.5h0.1l-0.1,67l-10.2,1.4v3.3l5.5,3.3l-0.1,60.6c-15.9,5.5-24.4,22.8-19,38.7c2.4,6.9,7.1,12.7,13.4,16.4
	l-0.1,59l-3.3,0.9l-2.3,1.2l-0.9,1.3v3.4l0.6,1.3l2,1.2l3.3,1l0.5,0.1l-3.5,29l-11,3.7l-4.5,1.7l-13.8,9.9l-3.1,2.6l-11.4,14.2
	l-7.1,16.7l-2.4,17.8l-0.2,0.2l2.3,18.2l1,3.3l3.4,8.3l3.4,8.3l11,14.2l5.8,4.4l-1.1,389.2l-10,7.6l-12.5,16.3l-4,9.5l-4,9.5
	l-2.8,20.4h0.1l2.6,20.4l3.9,9.5l3.9,9.6l12.5,16.4l8,6.2l-27.9,74.1l-1.7-5.2h0.9l-0.3-13.3h-0.8v-0.1l-1.3,0.1h-1.6l0.3,13.4h0.9
	l-13.3,47.8l-1.4,1l-9.2,1.2l-0.3-16.4h1.4v-2.4l-5.5-3.6l1.5-2.3l-1.6-5.1l3.2-5.4l3-1.2l-5.8-2.8l-2.3-2.3h-5.3l-0.8-44.7l3.5-4.2
	l-5-1h0.1l-0.3-6.3v-0.4l-0.5-5.1l-0.6-1.6h-3.7l-0.9-0.5l0.5-30.6l2.6-0.2l1.9-1.9l-0.1-3.9l-2.4-0.5l0.6-1.1l2.2-1.5l0.8-0.8
	l1.8-2.6l1-5.6l-1.2-7.8l-6.6-10.2l-8.7-8.2l-1-1.2l-1.8-2.2l-0.1-0.2l0,0l-0.1-0.2l-3.8-4.5l-3.3-6.5l-1.7-7.6l-0.5-5.6l0.3-0.2
	l0.7-0.7l0.5-0.9l0.1-1v-0.3l-0.2-1l-0.5-0.9l-0.7-0.7l-0.9-0.4h-0.2l-0.1-7l1.4-0.2l0.1-0.2l-0.2-1.3l-1.3,0.2l-0.1-10.9l6.9-0.1
	v-0.2h0.1v-1.4l-7,0.1v-1.1h1l0.1-0.2v-1.3h-1.1v-1h-1.5l-0.1,0.2v0.8h-1l-0.1,0.2v1.3h0.9v1.1l-6.9,0.1l-0.1,0.2v1.2h0.1l0,0h0.1
	v0.2l6.8-0.1l0.1,11.1l-1.4,0.2l-0.1,0.2l0.2,1.3l1.3-0.2l0.1,6.8h-0.2l-0.9,0.4l-0.7,0.7l-0.4,0.9l-0.1,1v0.3l0.2,1l0.5,0.9
	l0.7,0.7l0.3,0.1l-0.4,5.6l-1.4,7.7l-3,6.4l-4.2,5.4l-1.1,1.4l-0.1,0.2l0,0l-0.1,0.2l-1,1.2l-8.2,8.3l-6.1,10.2l-0.4,1l-1,7.7
	l1.1,5.4l1.8,2.5l2.8,1.8l0.7,1.1l-0.9,0.2l-0.9,1.9v3.8l3.5,0.3l0.9,1.1v4.2l-3-3l-3.1-2.4l-0.5-0.4l-0.1-0.1l-0.1-0.1l-2.1-1.7
	l-3.4-3.3l-0.1-0.1l-0.1-0.1l0,0l-0.2-0.4l-0.1-0.2l-0.1-0.2l-0.2-0.3l-0.5-0.9l-0.5-0.8l-0.4-0.8l-0.4-0.6v-0.1l-0.6-0.6l-0.5-4.7
	l0.5-0.2l0.8-0.8l0.5-1l0.2-1.1l-0.2-1.1l-0.5-1l-0.1-0.2l-0.7-0.7l-0.9-0.5h-0.2l-0.1-7.6l1.5-0.2v-0.1l-0.2-1.4l-1.4,0.2l-0.1-7.1
	h1.9v-0.1h0.1v-1.3h-1.8v-3.2h7.3v-0.2h0.1v-1.5h-7.4v-1.3h1.1v-0.2v-1.4h-1.1v-1h-1.6v0.2v0.9h-1.1v1.5h1.1v1.2l-7.4,0.1v0.2v1.4
	l0,0l0,0h0.1v0.1h2.7v0.7h-1v0.1v1.2h1v1h-4h-2.3l-1.7-11.8l-2.2-1.3l-2.3-14.7l-1.8-1.1l-2.1-13.4l-1.7-1.1l-0.8-14.8l1.3-2.7
	l1.5-3.2l3.2-1.5l-3.3-2.9l3.5-3l-6.9-0.8l-0.1-3.8l-3.5-1l-0.3-1.1l0.4-0.3l-2.3-7.4l0.2,0.2v-1.1l-0.6-0.5l-5.1-16.8l-6.4-22.4
	l1.4,1l-0.1-1.3l-1.8-1.3l-0.7-2.3l-0.5,0.1l-0.7-2.4l-1.2,0.8l1.3-3v-6.4l-0.1-3.1h-1l-0.7-0.7l1.8-15.3l0.7-0.3l0.9-1.3l-0.5-0.8
	h0.1l1.3-0.9l1-1.2l1.2-1.7l0.8-1.9l0.2-2.1l-0.2-2l-1-2.6l-0.9-1.7l-1-1.5l-1.3-1.2l-1.6-1l-2.1-1.1l-1.9-1.2l-1.7-1.7l-1.2-1.9
	l-0.6-2.6l-0.4-6.2l0.4-0.2l0.7-0.7l0.4-0.8l0.1-1l-0.1-1l-0.2-0.6l-0.4-0.8l-0.6-0.6l-0.8-0.3h-0.1V815l1.3-0.2v-0.3l-0.1-1.2
	l-1.2,0.2v-10.3l6.4-0.1v-1.4v-0.3l-6.4,0.1v-0.9h1v-1.3V799h-1v-0.6V798h-1.4v0.9h-1v1.3v0.4h0.9v0.9l-6.4,0.1v1.4v0.3l6.4-0.1
	v10.4l-1.3,0.2v0.3l0.2,1.2l1.1-0.2v5.9l-0.5,0.2l-0.5,0.3l-0.7,0.7l-0.4,0.8l-0.1,1l0.1,1l0.2,0.6l0.4,0.8l0.6,0.6l0.3,0.1
	l-0.4,6.1l-0.6,2.7l-1.2,1.9l-1.6,1.7l-1.9,1.3l-2.1,1.1l-1.5,1l-1.5,1.2l-1,1.5l-1.1,1.7l-1,2.5l-0.2,2.1l0.2,2.2l0.8,1.9l1.1,1.7
	l1,1.2l1.3,0.9l0.2,0.1l-0.5,0.8l0.9,1.3l1,0.4l1.8,14.9l-1.1,1.1h-0.7l-0.1,0.9v6.5l0.3,2.1l1.6,3.6l-2.9-0.7l-1.3,4.3l-1.2,0.9
	l0.2,1.2l0.5-0.3l-14.5,47.9l2.4,0.6l-4.4,1.4l-0.7,3.7l-7.1,1l3.6,2.4l0.4,0.9l-2.1,2.5l3.1,1.5l1.5,3.1l-0.9,17.5l-1.8,1.1
	l-2,13.4l-1.9,1.1l-2.3,14.6l-2.2,1.3l-2.3,15.8l-2.6,2.6h-0.2v0.2l-0.5,0.5l-0.2,0.2h-0.3v0.2l-0.2,0.2l0.1,1.3l-0.1-0.8v-0.5
	l-0.5,0.6l0.6,1v0.4h-5.5v1.4h0.1v0.1h5.5l0.6,10.7l-1,0.1l0.1,1.2l0.1,0.1l0.9-0.1l0.2,3.9v2.6h-0.2l-0.4-0.3l-4.1-4.9l-2.2-4
	l-0.1-0.2l0,0l-0.1-0.2l-0.1-0.2l-0.1-0.2l0,0v-0.1v-0.2l-1.1-4.9l-1-7l0.8-0.4l0.8-0.8l0.5-1l0.2-1.1l-0.2-1.1l-0.5-1l-0.8-0.8
	l-0.2-0.2l-0.9-0.4h-0.1v-7.6l1.6-0.2l-0.2-1.4l-0.1-0.2l-1.3,0.2v-11.7h7.2v-0.2h0.2v-1.4l-0.1-0.2h-7.3v-1.2h1.1V999l-0.1-0.2h-1
	v-0.9l-0.1-0.2h-1.6v1h-1.1v1.5l0.1,0.2h1v1.2l-7.4,0.1v1.6h0.1v0.2l7.2-0.1l-0.1,11.9l-1.5,0.2l0.2,1.4l0.1,0.2l1.3-0.2v7.3
	l-0.2,0.1l-1,0.5l-0.8,0.8l-0.5,1l-0.2,1.1v0.3l-1.7-2.1l-3.8-3.2l-4.6-3l-2.3-1.7l-0.1-0.1l0,0l-0.1-0.1l-0.2-0.2l-1.6-1.7
	l-0.3-0.3l-0.4-0.4l-1.7-2.2l-1.7-3l-0.4-0.4l-1.1-0.5l-1.6-6.1l-1.1-7.1l0.4-0.2l0.7-0.7l0.5-0.9l0.2-1l-0.1-1l-0.5-0.9l-0.7-0.7
	l-0.2-0.2l-0.8-0.4h-0.1l0.1-7l1.5-0.2l-0.2-1.3l-0.1-0.2l-1.1,0.2l0.1-10.8h6.6V970h0.1l0,0l0,0h0.1v-1.2l-0.1-0.2l-6.7,0.1v-1.1h1
	v-1.3l-0.1-0.2h-0.9v-0.8l-0.1-0.2h-1.5v1h-1v1.3l0.1,0.2h0.9v1.1l-6.9,0.1v1.4h0.1v0.2h0.1l6.7-0.1l-0.1,11l-1.4,0.2l0.1,1.3
	l0.1,0.2l1.1-0.2l-0.1,6.8l-0.2,0.1l-0.9,0.4l-0.7,0.7l-0.5,0.9l-0.2,1l0.1,1l0.5,0.9l0.7,0.7l0.2,0.2h0.1l-1.2,7l-1.8,6.2l-1.5,0.7
	l-1.8,2.9l-1.9,2.2l-0.1,0.2l0,0l-0.1,0.1l0,0l-2.8,2.6v0.1l-0.3,0.2l-2.9,2l-5,3l-4.1,3.2l-2.6,2.9l-2,3.3l-1.4,4l-0.4,3.2l0.2,3.8
	l1,3.8l2.1,3.3l3.2,2.7l0.3,0.2l-1.6,0.3v3.8l3.1,1.9l1.5,0.1l-0.4,34.1l-1,0.6h-3l-1,1.6l-0.7,5l-0.1,6.6l0,0l-5.1,1l3.5,4.2
	l-0.6,43.7h-5.3l-1.7,1.7l-3.3-9.8h0.6l0.2-13.2h-1.5l-1.4-0.1v0.1h-0.6l-0.2,13.1h0.6l-18,47.7l-11.9,7l-0.1,2.7h3.7l-0.3,13.4
	l-2.5,0.6v1.9l1.5,2.2v1.7l-1.6,0.5v1.6l1.6,0.9l-0.2,7.9v0.3l-1,0.3v0.7l1,0.4l-0.2,8.9l-0.6,1.2l-0.1,2.9l-2.1-1.8l-0.6-2.3
	l-1.6,1.4l-0.1-0.2l-2.8-2.3l-54.3-5.3v23.5h-31.7v-2.2l0,0v-3.9l0,0v-2.2l0,0v-0.7l0,0v-3.7l0,0v-7.1l0,0v-0.8l0,0v-5.7l0,0v-0.8
	l0,0v-0.7l0,0v-3.4l0,0v-6.3l0,0v-2.8l0,0v-3.4l0,0v-1.4l0,0v-6.2l0,0v-0.8l0,0v-5.5l0,0v-0.8l0,0v-0.7l0,0v-3.4l0,0v-2.9l0,0V1180
	l0,0v-8l0.2-3.7v-0.1h-0.2l-0.2-0.1v-3.1l-0.4-0.1c0,0-7.8-2.2-23.8-1.8l-0.3-133.8l-0.6-0.2l-0.4-0.1l-0.6-0.2l-0.8-0.2l-0.5-0.1
	v-2.2l2,0.5v-1.1c-5.4-1.5-10.8-2.6-16.3-3.4c-1.9-0.2-4.1-0.3-6.3-0.4v-1.6l0,0v-2.6l0,0v-5.1v-0.3v-6.4l0,0v-1.6l0,0v-2.4v-0.2
	v-6.8v-0.5v-4.6v-0.1v-3.2v-0.8l0,0v-4.8v-0.7l-0.1-10.4v-0.2l-0.1-14.7v-1.2v-7.4v-0.7v-5.2v-0.3l-0.1-19.6l-0.2-70.3l-0.1-0.1
	l-0.1-0.1v-2.9h0.2l-0.5-0.4c-2.1-1.5-4.3-2.9-6.6-4c-2.8-1.4-5.8-2.4-8.9-3c-2-0.4-4.1-0.6-6.4-0.8h-0.1c-2.9-0.3-6-0.5-8.7-0.6
	l0.4-218.6v-0.1v-0.3v-0.5v-0.6l-0.1-0.7l-0.2-0.8l-0.4-0.9l-0.5-1l-0.7-1l-0.9-1l-1.2-1l-1.5-1l-1.8-0.9l-2.1-0.9l-2.5-0.8
	l-2.8-0.7l-2.9-0.5l-2.7-0.4l-2.6-0.3l-2.4-0.3l-2.2-0.2l-2.1-0.1l-1.9-0.1h-0.6v-7.9v-4v-4.6v-5v-5.5v-5.9v-6.2V560v-6.7v-6.9v-7.1
	v-7.2V525v-7.2v-7.2v-7v-6.9V490v-6.5v-6.2v-5.8V466v-5v-4.5v-4v-3.4v-2.8v-2.1v-1.4v-0.7l-0.1-0.5l-0.1-0.6l-2-0.7l-0.3-0.6
	l-0.3-0.6l-0.4-0.6l-0.4-0.6l-0.5-0.6l-0.5-0.5l-0.5-0.5l-0.6-0.5l-0.6-0.5l-0.2-0.1l0.6-50.9v-0.1V384l-0.1-0.2l-0.1-0.2l-0.2-0.3
	l-0.2-0.3l-0.2-0.4l-0.3-0.4l-0.3-0.5l-0.4-0.5l-0.4-0.5l-0.5-0.5l-0.5-0.6l-0.6-0.6l-0.6-0.6l-0.7-0.6l-0.7-0.6l-0.8-0.6l-0.8-0.6
	l-0.9-0.6l-1-0.6l-1-0.6l-1.1-0.5l-1.2-0.5l-1.2-0.5l-1.3-0.5l-1.4-0.4l-1.5-0.4l-1.5-0.3l-1.6-0.3l-0.8-0.1v-5.6l0,0v-5.2l0,0v-4.6
	l0,0V349l0,0v-1.4l0,0v-1.1l0,0v-8l0.8-1l0.5-90.4v-1.6v-0.4v-0.5l-0.1-0.5l-0.1-0.5l-0.1-0.5l-0.1-0.5l-0.2-0.5l-0.2-0.5l-0.2-0.5
	l-0.5-0.6l-0.6-0.6l-0.7-0.5l-0.7-0.4l-0.8-0.4l-0.8-0.3l-0.8-0.2l-0.8-0.2l-0.6-0.1l-0.6-0.1l-0.7-0.1l-0.8-0.1l-0.8-0.1l-0.9-0.1
	h-0.2l0.6-90.8l-0.2-0.1l-0.1-0.1l-0.2-0.1l-0.3-0.2l-0.4-0.2l-0.5-0.3l-0.5-0.3l-0.2-0.1v-1.2c0,0-1.2-2.3-6.1-2.3
	c-0.7,0-1.5,0-2.3,0.1l0.3-56.9c0-1.8-1.6-3.7-5.1-4.4l-0.7-0.1l-0.3-0.1l0,0c-0.5-0.1-1-0.1-1.2-0.1V1.2c-0.6-0.6-1.4-1-2.2-1.2
	c-1.2,0-2.4,0.2-3.5,0.7l0.6,97.8l-1.2,0.1l-2.3,0.9l0.2,10.4h-0.2l-1.8-0.2l-2,0.1l-1.1,0.1l-1,0.1l-1,0.2l-1,0.2l-1,0.2l-1,0.2
	l-1,0.2l-0.9,0.2l-0.8,0.2l-0.8,0.2l-0.7,0.2l-0.6,0.2l-0.5,0.1l-0.4,0.1l-0.2,0.1l-0.7,0.2l1.6,94.9l-1.4,0.4l-1.9,0.5l-1.9,0.5
	l-1.8,0.5l-1.6,0.5l-1.5,0.4l-1.3,0.4l-1.1,0.3l-0.8,0.2l-0.5,0.2l-0.8,0.2l2.3,99.6c-2.3,1-4,2.9-4.6,5.3l0,0
	c-0.1,0.3-0.1,0.7-0.1,1v0.2l1,16.5v0.1l0.4,7.5v0.7l0,0l0.4,7.2l0,0v0.9l0.9,15.7l0,0v0.9l0.4,7.6v0.8l0,0l0.4,7.2l0,0l0.1,1
	l0.4,7.3l0,0l0.1,1.1l0,0l0.2,3.2c-3.1,0.9-5.4,1.7-5.4,1.7l0,0l-17.7,5.4l-0.7,0.2v0.4l0.4,5.6l2.7-0.8l-0.3-4.4l6.1-1.9v4.5
	l2.7-0.8v-4.6l6.1-1.9v4.7l2.6-0.7V398l3.5-1.1l0,0l0,0l0.3,4.9h0.2c-10.6,2.8-24.1,6.9-24.1,6.9l2,97.7l-0.5,0.4l-0.6,0.7l-0.4,0.7
	l-0.3,0.7v0.6l1.8,188.7c-3,0.7-5.9,1.8-8.6,3.1h-0.2v6.5c-0.7,0.3-1.3,0.7-1.9,1.2l0.4,26.9v0.2l0.1,6v0.4l0.1,6.4v0.2l0.1,5.8v0.3
	l0.1,5.2v0.9l0,0l0.1,5.5v0.7l0.1,5.8v0.4l0,0l0.1,5.2l0,0v0.9l0,0l0.1,5.2v0.9l0.2,11.5v0.8l0,0l0.1,5.2v0.9l0.2,11.4l0,0v0.9
	l0.1,5.2v0.9l0.1,5.2l0,0v0.7l0.1,5.5l0,0v0.9l0.1,5.2v0.9l0.1,5.2v0.8l0.1,5.4v0.1l0.1,6v0.9l0.1,5.3v0.8l0,0l0.1,5.9v0.3l0.1,5.2
	l0,0v0.9l0.1,5.2v0.9l0.2,11.6v0.7l0,0l0.1,5.2v0.9l0.1,7.5l0,0c-1.1-0.1-2.2-0.1-3.2-0.1v-3.7l0.6-0.1c0.8-0.1,1.7-0.1,2.6-0.2
	v-0.7c-1,0-1.9,0.1-2.8,0.2c-1.1,0.1-2.2,0.2-3.3,0.4c-5.5,0.9-9.1,2.5-8.8,4.2l0,0l0,0l0,0c0.1,0.4,0.3,0.7,0.6,1
	c0.1,0.1,0.2,0.2,0.4,0.3c-0.4,0.2-0.8,0.3-1,0.4c-0.6,0.2-1.1,0.4-1.6,0.7l0,0l0.3,15.7l0,0v0.4l2.5,148c-1.1-0.1-2.4-0.2-3.6-0.2
	l0,0c-2.5,0-5,0.2-7.5,0.8c-2.1,0.5-3.4,1.2-3.4,2l0,0c0,0.1,0,0.2,0.1,0.3v5.2l0.1-0.1c-1.8,1.3-2.1,3.1-1.9,5.6
	c0,0.5,0.1,3.4,0.2,8v0.4c0,1.8,0.1,3.9,0.1,6.1v0.5l0,0v1.2v1c0,1.2,0.1,2.5,0.1,3.8v0.3c0.1,4.1,0.2,8.7,0.3,13.4v1.3
	c0.1,3.1,0.1,6.4,0.2,9.6v0.7l0,0c0,0.4,0,0.7,0,1.1v1.1c0,1.1,0,2.2,0.1,3.4v0.2c0,0.4,0,0.9,0,1.3v1.4c0,1.1,0,2.3,0.1,3.4v0.2
	c0,2.5,0.1,5.1,0.2,7.6l0,0v0.4c0,1.5,0,2.9,0.1,4.3v0.2c0.1,4.4,0.2,8.7,0.3,12.7l0,0c0.2,11.7,0.4,21.2,0.5,25.6v-0.3h-2.3
	c-2.7,0-5.3,0.2-8,0.5c-2.3,0.3-3.7,0.7-3.9,1.2v0.1v0.1l0,0v2.8l0.7-0.1h0.3v-2.1c0.2,0.1,0.5,0.1,0.7,0.2c0.5,0.1,1,0.2,1.7,0.2
	v1.5l1-0.1v-1.3c0.7,0.1,1.5,0.1,2.3,0.1v1h0.1c-1.9,0.1-3.8,0.3-5.8,0.4l0,0h-0.3l-1.8,0.2l1.2,60.4c-8.6-0.1-56.5,0.3-56.6,0.3
	c-0.4,0-0.7,0.2-0.6,0.4s0.1,0.2,0.3,0.3v2.8h-0.2v5.2h-3l-1.6-211.4l-0.2,61.6V935.3l0,0l39.1-16c1.2,0,2.5,0,3.8,0l0.5-0.5h-1h1.1
	v-1.3c-1,0-2,0-3,0l0.9-6.3l-0.3-0.2c0.8,0.5,1.5,0.8,2.2,1.4l0.6-0.4l0,0l0.6-1.2l0,0c-0.8-0.5-1.6-1-2.5-1.5
	c-0.8-0.5-1.6-0.9-2.4-1.4c-3.3-1.9-6.9-3.4-10.6-4.4l0,0l-1.1-0.3l-1.1-0.2c-1.7-0.3-3.4-0.4-5.1-0.3c-1.2,0.1-7.2,0.5-8.1,0.9l0,0
	l-1.5,0.7c-3.2,1.6-8.7,4.3-12,6.1V789l-0.1,0.1v-9.3l-0.2-0.2l0,0l-5.7,2.7v-62.8l-5.9-14.7v80.8l-1.5,1.3l-1.3,1.2l-1.4,1.2
	l-1.4,1.3l-1.4,1.3l-1.4,1.3l-1.5,1.4l-1.5,1.4l-1.5,1.4l-1.5,1.5l-1.6,1.5l-1.6,1.5l-1.6,1.6l-1.6,1.6l-1.6,1.6l-1.6,1.6l-1.6,1.7
	l-1.6,1.7l-1.6,1.7l-1.6,1.7l-1.6,1.8l-1.6,1.8l-1.6,1.8l-1.6,1.8l-1.6,1.8l-1.6,1.8l-1.6,1.8l-1.6,1.9l-1.6,1.9l-1.6,1.9l-1.6,1.9
	l-1.5,1.9l-1.2,1.5l-1.2,1.5l-1.2,1.5l-1.2,1.5l-1.2,1.5l-1.2,1.5l-1.2,1.5l-1.2,1.5l-1.1,1.5l-1.1,1.5l-1.1,1.5l-1.1,1.5l-1.1,1.5
	l-1.1,1.5l-1.1,1.5l-1,1.4l-1,1.4l-1,1.4l-1,1.4l-1,1.4l-1,1.4l-0.9,1.3l-0.9,1.3l0,0c-4.9-1.4-10-2-15.1-1.9
	c-8.6,0-17.3,1.6-21.8,4.7v2.2c-0.1,0.2-0.2,0.5-0.2,0.8l0,0l0,0l0,0c0.1,1.9,3.2,3.7,8,4.8c0.9,0.2,1.9,0.4,3,0.6s2.1,0.3,3.3,0.5
	l0,0c0.8,1.4,1.6,2.8,2.4,4.3s1.6,2.8,2.3,4.2c-0.2,0.2-0.3,0.4-0.3,0.6l0,0c0,0.4,0.3,0.8,0.7,1l0.2,0.1l0,0l0.3,0.1l1,1.7v1.4
	l-0.4,0.6l-2.9,5l-2.9,5l-2.8,5l-2.7,5.1l-2.7,5.1l-2.6,5.1l-2.5,5.1l-2.5,5.2l-2.4,5.2l-2.3,5.3l-2.3,5.3l-2.2,5.3l-2.1,5.4
	l-2.1,5.4l-2,5.5l-1.9,5.6l-1.9,5.6l-1.8,5.7l-1.7,5.7l-1.7,5.8l-1.6,5.9l-1.6,6l-1.5,6l-1.4,6.1l-1.4,6.2l-1.3,6.3l-1.2,6.4
	l-1.2,6.4c-0.5,2.4-0.8,4.8-0.9,7.2c-12.5,69.6-10.9,141.2,1,210.7c0.1,0.5,0.2,1.3,0.4,2.2l0.6,1.8c-1.8,1.8-4.9,2.9-12.5,2.4
	c-0.9-5.7-1.1-11.6-4.4-16.3h-0.2c-2.5-16-4.6-31.5-4.6-31.5l1.3-11.2c2.6-5.3-2.6-7.3-2.6-7.3l-1.8-9.7l-15-1.4
	c-7-11.7-14.1-51.6-14.1-51.6l0.4-5.3c0-5.3,4.9-10.2,4.9-10.2l-9.7-3.9l-1.3-6.8l-18.1-4.9l-14.5-47.6l2.7-3.9l-1.8-5.3l3.5-8.8
	l-7.9-2.9l-1.3-10.2l-9.2-3.4c-2.2-13.1-22.5-58.3-22.5-58.3l-4.4-6.3l2.6-8.8c-105.3-38.4-262.1-11.7-262.1-11.7l0.4,6.8l-3.1,2.4
	l-0.9,8.3l-10.6,1.5l-33.5,7.3l-12.4-12.2C3290.2,1020.6,3319,1077,3319,1077l-3.8,23.8c-7.7,8.4-10.3,20.3-6.8,31.1l-4,23.6
	c-15.2,8.5-7.3,24.8-7.3,24.8l-7.7,37.7c-7,3.4-1.1,10.2-1.1,10.2l-1.8,18.4c-5.2,1-10.5,1.9-14.2,3.5c-1-46-2.8-92.2-2.9-138.6
	c0.6-0.9,1.6-1.4,2.7-1.3v-5.4c3.4-1.1,7.3-1.8,6.1-7.4c1.4-3.5-3.4-0.6-2.7-3.4v-13.5c-0.9-3,2.6-1.4,2-4.1c-0.6-1.2-2.5-1.1-2-3.4
	c0.5-4.1-0.9-6.3-0.7-10.2c5.4-4.3,21.1-21,23-23c1.1-1.2,6.3-4.2,3.4-4.7c-3.3,0.8-6.1-1.1-9.5-1.4c-5.7-0.5-11.8,0.4-18.3,0
	c1.6-4.1-3.2-1.8-4.1-3.4c0.3-8.9-0.2-16.9-0.6-25.1c1.6-2,4.2-3,5.4-5.4c2.4-1.4,17.2-9.2,16.6-13.6c-5.1-2.2-184.6-0.6-204-0.6
	c2.3-3.6,2.8-9,3.4-14.2c0.1-2.8-2.1-3.3-2-6.1c1.1-1.4,0.5-4.5,1.3-6.1c-0.9-2.5-2.3-4.5-2.7-7.4c1-2.1,2.4-3.9,4.1-5.4
	c-1.1-2.3-0.8-5.8,0.6-7.4c-1.3-3.4,0.5-4,1.4-6.8c-2.2,1.1-3.6,0.2-4.7-1.3c-6.1,1.2-8.2,6.2-10.8,10.8c-0.1,3.7-0.8,7.3-2,10.8
	c-3.1-0.2-6.1,0.5-8.8,2c-0.1,0.2-0.2,0.4-0.3,0.6l-5.6-5.8c-0.1-0.1-0.2-0.1-0.3-0.2l0,0l-1.4-0.7c-0.7-0.7-0.8-1.8-0.6-3.4
	c0.8-1,2-4,0-4c1.2-5,2.5-6.9,3.2-10.5c-2.3,1.2-3-0.3-6.1,0c-1.9,3.5-5.6,8.1-7.3,11.8c-0.4-5.8,0.5-12.8,0-19
	c-0.4-5.5-1.4-9.9-6.6-10.5c-2.7,1.1,0,7.7-4.8,6.8c-4-3.3,2.3-7.1,0-10.8c-0.8-0.6-1.9-0.9-2.9-0.6c1.3-0.8,2.5-1.9,3.2-3.3
	c1.4-7.4-4-8.2-5.4-12.8c1.4-1.1,3.6-1.4,4.8-2.7c-1.3-1.9,1.4-1.8,2-2.7c1.6-2.6,1.1-6,2.7-8.8c0-3-2.4,1.1-3.4,1.3
	c-1.7,1.1-3.5,2.1-5.4,2.7c-1.9,1.5,1.6,4.2-2,4.1c-1.5-0.9,0.2-7.3-2.7-4.8c-3.4,1.6,2.2,4.5-1.4,5.4c-1.9-1-0.4-3.2-2.7-4.7
	c-4.2-0.5-6.2-3.3-9.5-4.7c0.6,3.4,2.4,5.8,3.4,8.8c1.7,0.8,2.2,2.7,4.7,2.7c-0.7,3.4,2.6,2.8,4.1,4.1c-1.8,3.4-5.5,6.2-4.8,10.8
	c0.7,4.2,3.9,4.8,7.4,6.8c-0.9,1.9-0.2-1.2-1,0.5c-1.8,0.7-2.3,2.7-4,3.4c-1-2.9-3.5,0-5.4,0c-2.3,6.2-0.1,10.6,0.5,18
	c0.4,4.9,2.5,10.5-3.4,11.5c1.1-3.5-0.9-7.6-2.8-10.8c-3.4-1.4-3.4,1-6.1,0c1.2,2.3-0.8,3.6-0.7,5.4c0,0.3,3.6,1.5,3.5,2.7
	c-0.3,2.7-2.2,5.5-1.4,9.5c-0.5,0.1-0.8,0.5-0.7,1.3c0.3,3.3-4.1,1.7-3.4,5.4c-0.1,0.1-0.2,0.3-0.2,0.4c0-0.9-0.4-1.8-1.1-2.4
	c-2-2.1-6.4-1.7-9.5-2.7c-4-6.6-3.7-17.5-12.2-19.6c-1.4,1.5-3.4,2.2-5.4,2c1.6,2.5,0.9,3.8,0.6,7.5c1.8,2.2,1,4.4,0.7,7.4
	c0.7,1.8,3.6,1.3,4.7,2.7c-0.2,3.2-2.8,4-2.7,7.4c1.2,2,1,5.4,2,7.4c-3.9,2.5-2.4,7.4-2,12.2c0.2,2.4,0.6,4.8,0,6.1
	c-22.1,0-216.4-1.4-216.3,1.9c-0.7,1.9,10.9,9.4,11.8,10.3s1.8,1.9,2.7,2.7c1.8,1.7,4.7,2.7,5.4,5.4c-1,7.6-0.6,16.5-0.7,25
	c-3.4-0.9-4.7,1.2-6.1,1.3c-10.4,1.4-22.9-1.2-33.2,0.7c-0.7,0.9,0.6,1.9,1.4,2.7c2.6,2.9,14.7,17.2,17.6,19s6,3.5,8.8,5.4v12.2
	c0.7,2.4-3.3,0.3-2,3.4c-0.1,1.9,2.3,1.3,1.4,4.1v13.5c0.2,1.8-3.8-0.6-2.7,2.1v4.7c1.1,2.5,5.1,2.1,6.8,4.1v5.4
	c1.3,0.3,4.1-0.9,3.4,1.3c-1.6,50.8-3.5,103.2-4.9,154.5h-17.6c-15.2-29.9-30.1-61.2-40.5-85.4v-0.1v-0.1l0,0l-0.1-0.1
	c-2.9-6.8-5.8-13.6-8.5-20.4v-12.5h2.1v-4.6h-2.1v-4.3h-2.2v-15.6h2.2v-4.6h-15.9l-1.6-4.4c-19-53.9-31.8-105.5-38.4-154.8l6.2-6.8
	h0.7v-11h-4.3v-6.8h-6.1c-8.7-47.2-15.8-111.7-21.5-193.6c-4.3-62-7.7-133.9-10.3-215.6l0.1-0.1l-0.1-0.1c-1-32.8-1.9-67.1-2.7-103
	l0.8-7.4l5.6-17.4h0.1v-11h-6.5l-0.3-0.3v-7.1l0.7-0.7h3.7v-2h0.2v-7.8h-2.1v-2.9h1.9v-7.8h-2.3l-17-17c-0.7-0.6-1.7-0.9-2.6-0.7
	l-0.5,0.1v-6.6h2.1v-5.7h-2.1v-5.6h2.1v-5.7h-2.1v-4.6h2.1v-5.7h-2.1v-4.4h2.1v-5.7h-2.1V290h-1.7v-42.4h-3.5V290h-1.6v5.5h-2.1v5.7
	h2.1v4.4h-2.1v5.7h2.1v4.6h-2.1v5.7h2.1v5.6h-2.1v5.7h2.1v6.6c-0.2-0.1-0.4-0.1-0.6-0.1c-0.9-0.2-1.9,0.1-2.6,0.7l-17,17h-2.1v7.8
	h2.1v2.9h-2.1v7.8h0.2v2.2h3.8l0.6,0.7v6.9l-0.2,0.2h-4.7l0,0h-1.9v11h0.1l5.8,18.1l0.7,6.1c-2.7,126-7,232.5-13,319.5
	c-3.5,50.3-7.5,94.1-12.1,131.3l0,0l0,0c-2.9,23.3-6,44-9.3,62.2h-6v6.8h-4.4v11h0.6l6.1,7.8c-3.6,25.7-8.5,51.1-14.9,76.2l0,0l0,0
	c-6.3,25.3-14.1,51.1-23.4,77.5c-0.5,1.5-1,3-1.6,4.4H2476v4.6h2.2v15.7h-2.2v4.3h-2.1v4.6h2.1v12.3c-12.6,31.1-27.2,62.9-43.8,95.5
	c-16.5,0.4-35.6-0.3-52.2,0.1c3.7-5.8,2-13.4-3.8-17.1c-1.7-1.1-3.6-1.7-5.6-1.9c6.7-6.1,13-12.7,18.9-19.6
	c1.3,6.7,7.7,11.2,14.5,9.9c6.7-1.3,11.2-7.7,9.9-14.5c-1.1-5.9-6.2-10.1-12.2-10.1c-0.3,0-0.5,0-0.8,0c4.7-6.6,9.1-13.5,13-20.6
	c2.6,6.4,9.8,9.4,16.2,6.9s9.4-9.8,6.9-16.2c-2.4-5.8-8.7-9-14.8-7.3c3.2-7.2,5.9-14.5,8.3-21.9c4.2,5.4,12,6.4,17.4,2.2
	c5.4-4.2,6.4-12,2.2-17.4c-3.4-4.4-9.4-6-14.6-3.9c1.5-7,2.7-14,3.5-21.1c5,4.7,12.8,4.5,17.6-0.4c4.7-5,4.5-12.8-0.4-17.6
	c-4.3-4.1-11-4.6-15.8-1.1c0-1.8,0.1-3.6,0.1-5.4c0-5.8-0.2-11.5-0.7-17.2c5.7,3.9,13.4,2.4,17.3-3.3c3.9-5.7,2.4-13.4-3.3-17.3
	c-5.2-3.5-12.2-2.7-16.3,2c-1.3-7.9-3.1-15.7-5.3-23.4c6.4,2.4,13.6-0.8,16-7.2s-0.8-13.6-7.2-16c-5.6-2.1-11.8,0-14.9,5.1
	c-2.3-5.9-4.9-11.8-7.7-17.4c6.8,1,13.1-3.6,14.1-10.4c1-6.8-3.6-13.1-10.4-14.1c-5.6-0.8-11,2.2-13.3,7.4
	c-3.9-6.3-8.2-12.5-12.8-18.4c6.8-0.7,11.8-6.8,11.1-13.6s-6.8-11.8-13.6-11.1c-5.1,0.5-9.3,4.1-10.7,9.1
	c-4.2-4.5-8.6-8.8-13.1-12.9c6.6-2,10.3-8.9,8.3-15.5s-8.9-10.3-15.5-8.3c-4.9,1.5-8.4,5.7-8.8,10.8c-5.4-4-11.1-7.8-16.9-11.3
	c5.9-3.5,7.9-11.1,4.4-17s-11.1-7.9-17-4.4c-3.8,2.2-6.1,6.3-6.1,10.7c0,0.2,0,0.4,0,0.5c-5.7-2.7-11.6-5.2-17.6-7.4
	c4.9-4.8,5.1-12.6,0.3-17.6c-4.8-4.9-12.6-5.1-17.6-0.3c-3,2.9-4.4,7.2-3.5,11.3c-5.5-1.4-11-2.6-16.6-3.5
	c3.8-5.7,2.1-13.4-3.6-17.2c-5.7-3.8-13.4-2.1-17.2,3.6c-2.1,3.3-2.6,7.3-1.3,11c-4.8-0.3-9.6-0.5-14.4-0.5c-1.6,0-3.1,0-4.7,0.1
	c2.5-6.4-0.7-13.6-7.1-16.1s-13.6,0.7-16.1,7.1c-1.3,3.5-1.1,7.4,0.8,10.6c-8.3,1-16.5,2.6-24.6,4.5c0.1-0.5,0.1-0.9,0.1-1.4
	c0-6.9-5.6-12.4-12.4-12.4c-6.9,0-12.4,5.6-12.4,12.4c0,2.9,1,5.8,3,8c-5.6,2-11.1,4.3-16.4,6.8c0-6.9-5.6-12.4-12.5-12.4
	s-12.4,5.6-12.4,12.5c0,4.1,2,7.8,5.4,10.2c-5.6,3.3-11,6.9-16.3,10.8c-1-6.8-7.3-11.5-14.1-10.5s-11.5,7.3-10.5,14.1
	c0.7,4.5,3.7,8.3,8,9.9c-3.1,2.7-6.1,5.6-9,8.5c-1.4,1.4-2.8,2.8-4.1,4.2c-2.2-6.5-9.2-10-15.7-7.8s-10,9.2-7.8,15.7
	c1.5,4.3,5.2,7.5,9.6,8.3c-3.8,4.9-7.4,10-10.8,15.2c-3.4-5.9-11-8-17-4.6s-8,11-4.6,17c2.2,3.9,6.3,6.2,10.8,6.2h0.1
	c-3,5.9-5.7,12-8.2,18.1c-4.5-5.2-12.3-5.8-17.5-1.4s-5.8,12.3-1.4,17.5c3,3.5,7.6,5,12,4.1c-1.8,6.2-3.2,12.5-4.4,18.9
	c-5.5-4.2-13.2-3.1-17.4,2.4c-4.2,5.5-3.1,13.2,2.4,17.4c3.5,2.7,8.1,3.3,12.2,1.6c-0.5,6.1-0.8,12.3-0.8,18.5c0,0.4,0,0.8,0,1.1
	c-5.7-3.8-13.4-2.2-17.2,3.6c-2.1,3.2-2.6,7.3-1.3,11l-7.2,9.4v45.6l-8.7-13.8h-8.1l-0.2-13l-7.1-11.4l-7,11.7v12.5h-7.4l-0.9,1.4
	c-2.8-3.6-5.5-7.4-8.3-11.3l-0.2-21.7l-5.8-8.7l-7.4,8.4v2.8c-25.1-37.4-46.7-76.9-64.7-118.1V885.3h-4.2l-5.4-26.9l-5.2-25.6v-20.5
	h-1.3v20.5l-5.2,25.6l-2.8,13.8l-7.1-15.4l-5.6,8.6l-13.9,1.4l-0.2-0.4l-4.6-22.5l-5.2-25.6V798h-1.3v20.5l-4.1,20l-18-33.2l-4.9-5
	v-13.4h-1.4v12l-9.7-10v-20.1h-1.4v20.5l-10.3,16v-12h-1.4v14.1l-1.5,2.3l-34.3,82.7h-8.1l-3.4-5.2l-3.8,5.2h-6l-1.9-9.4l-5.2-25.6
	v-20.6h-1.3v20.5l-5.2,25.6l-5,24.4l-83.2-22v-11.9c0.3-0.5,0.5-1.1,0.5-1.8v-1.9c0-1.9-1.5-3.5-3.5-3.5s-3.5,1.5-3.5,3.5l0,0v1.9
	c0,0.6,0.2,1.2,0.5,1.8v0.9l-8.5-2.6c0.9-0.4,1.6-1.2,1.7-2.2l0.2-1.9c0.2-1.8-1.7-3.7-4.5-4.2v-4.2h2.8v-4.8h-2.8v-4.8h-1.9v4.8
	h-2.3v4.8h2.3v4c-2.3,0.1-4.2,1.2-4.4,2.9l-0.3,1.9c0,0.3,0,0.7,0.1,1l-7.9-2.4v-2.8c0.3-0.5,0.5-1.1,0.5-1.8v-1.9
	c0-1.9-1.6-3.5-3.5-3.5s-3.5,1.6-3.5,3.5v1.9c0,0.6,0.2,1.2,0.5,1.8v11.3L1509,863v-7.5l-20.8-4.7v7.6L1373,830.3v-80.2h7.8v-11.5
	h-5.8l-7.5-36.8l-7.1-35.1v-28.1h-1.9v28.1l-7.1,35.1l-7.5,36.8h-5l-19.7-47.8l-14.8,17.2l-35.2-74.5l-3.7-9.5l-2.2-3.5v-14h-1.9v11
	l-22.4-22.2v-14.5h-1.8V596l-18.2,35.3v-15.8h-1.8v20.4l-23.2,74.5l-10-23l-7,52.6l-8-10.6l-17.9-32V675h-1.8v22.4l-7.1,35.1
	l-7.1,34.9h-6.2v11.5h3.2v245h-26.9v10.5h-3.8v34.1h-6.6v126h-4.3V1012h-6.1v-9.2h-11.3v-43.3h-5.7v-28.9h-3.8v-87.9h-9.4v87.9h-4.7
	v28.9h-7.5v43.3h-7.5v9.2h-6.1v118h-19.3v39.4h-17.9v-141.7h-4.6V911.3l-0.9,0.4c0.3-59.7,1.5-123.6-0.8-182.6
	c-0.6-14.6,1.7-29.7,0-43.7c-0.3-2.6-2-5-2.3-7.9c-1-7,0.7-14.4,0-21c-1-4.3,3.1-2.9,3.1-6.1c-4.3-3.4-5.4-9.6-7.8-14.9
	s-6.3-10.4-7.1-15.7c-0.4-3.2,0.8-6.8,0.8-9.6c0.1-18.6,0.7-38.4-3.9-56c-1.1-4.3-3.7-7.9-4.7-12.2c-1.8-7.8-1.5-16.3-3.1-24.5
	c-2.9-15-6.6-29.7-10.2-44.6c-1.7-7.2-4.5-14-6.3-21c-0.9-3.6-0.6-7.4-1.6-11.4c-0.7-2.9-2.6-5.9-3.1-8.7c-0.8-4.6-0.1-9.9-0.8-14.9
	s-2.7-9.3-3.1-14c-0.5-5.6,0.5-11.1,0-16.6c-0.4-3.8-2-7.5-2.3-11.4c-1.7-19.1-0.7-39.4-1.6-60.4c-0.5-11.2,1.7-23.5-1.6-35
	c-2.7,24.6-1.4,51-2.3,76.1c-0.8,19.1-1.6,38.5-4.7,57.7c-1,6.5-1.1,13-2.3,18.4c-1.8,7.9-8.1,13.8-6.3,22.7
	c-4.9,6.5-9.4,13.4-8.6,26.2c-5.2,6.7-7.6,16.6-7.1,29.7c-5,7.2-2.8,16.4-3.9,24.5c-0.5,3.4-2.7,6.4-3.1,9.6
	c-0.8,5.2,0.8,10.4,0,15.7c-0.5,3.2-2.6,6.3-3.1,9.6c-2.3,15.3,0.2,32.4-0.8,49.9c-2.2-1.3-5.2-2.4-7.8-0.9
	c0.2,4.7,7.5,6.2,5.5,10.5c-5.8,3.5-12.6,0.2-18,0.9c-0.7,5.1,5.7,6,7.1,12.2c1,4.4-0.7,8.7,0,14.9c-1.1,2-5.1,0.7-4.7,4.4
	c-0.5,76.1,1,162.1-0.8,239.6c-6,0.6-9.6-1.5-15.7-0.9c-2.2,1-0.6,6.3-2.3,7.9h-14.2c0.3,10.2-1.2,13.6-0.8,24.5
	c-2.6,1.7-3.3,3.8-3.9,7c-0.1,0.5-0.2,1.1-0.2,1.7v20.2c0.1,2.9,0.2,5.9,0.2,8.8c0,6.4-0.1,12.7-0.2,19v46.3
	c-0.9-68.6-1.8-137-2.6-206.7c-0.6-1.8-3.7-0.8-3.7-3.4v-62.5c-3-2.1-8.1-1.8-11.6-3.4c-0.5-8.1,0.6-14.4-0.6-20.4
	c-0.8-4-4.7-8.4-3-15.7c-2.6-1.9-5.7-3.1-7.9-5.4c-0.5-2.4,1.4-3.3,0-4.8c-3.4-2.9-7.7-7.1-9.2-12.9c-3.3-13.1,0.2-33.9-2.4-49
	c-0.8-4.6-3.7-8-1.8-12.2c-1-2.5-3.5-3.3-4.3-6.1c0-18.1-3.2-39.2-0.6-55.8c-4.3-7.6-2.4-22.2-3.7-33.3c-2,8.9-0.6,21.6-1.8,31.3
	c-1.1,0.6-1.1,2.4-1.8,3.4c2.5,7.2,1,16.7,0.6,26.5c-0.4,9.4,1.8,20.1,0,27.2c-0.8,3-3.9,4.4-4.9,6.8c1.7,4.5-1.2,7.7-1.8,12.2
	c-2.1,14.1,1.5,30.8,0,49c0.1,2.8-3,2.1-2.4,5.4c-0.5,14-5,25.1-8.5,36.8c-1.4,4.6-2.8,9.4-4.3,14.3c-1.3,4.5-3.7,8.9-4.3,13.6
	c-0.9,7.4,1,16.2-0.6,25.2c-0.6,1.6-4.4-0.4-3.7,2.7c-1.4,5-4.2,10-4.9,15.7c-1.9,15.6,1.9,35.2-0.6,51c-0.6,3.8-3.7,7.8-4.3,11.6
	c-1,6.8-0.9,14.3-0.6,21.9l-5.7,0.2l-0.2-14.5h3v-2.7h2.4v-3.4H730v-2.7h-7.4v-58H720v-16.9h-2.8v-16.9h-2.6v-6.3H712v-9.4h-2.4
	v-8.2h-3v-3.1h-2.4v-11.1h-2.4v-9h-2.6v-14.5h-2.8v-20.6H694l-0.9-74l-2,73.8h-2.4V722h-2.6v14.8h-3v9h-2v10.9H678v6.3h-2.2v11.8
	h-2.6v8.6h-2.8v17.4H668v17.4h-2.6v60.5H658v-3.3h-2.9v-5.8h2.6v-5.1h-2.9v-6.1h2.6V853h-2.6v-8.7h2.9V838h-8.1v-6.2h5.2v-5.4H647
	V821h2.9v-6.2h-8.1V810h4.9v-6.5h-7.8v-3.2h5.2V792h-7.8v-3h2.6v-8.8h-7.5v-3.6h5.2V769h-4.9v1.5h-2.9v-5.8h4.6v-4h-2v-4h-2v2.9
	h-3.6V756l3.6,0.7v-8h-8.5v-3.2l-21.1-64.2l-46.5-8.7l-19.2,78.3h-1.6v2.5h-5.8v6.5h3.6v5.8h-6.5v8.4h3.6v2.9h-5.2v8.7h2.6v5.4H517
	v5.8h4.9v5.8H514v9.1h3.6v3.3H512v8.3h2.9v5.4h-6.2v5.8h2.9v5.8h-6.8v6.5h3.9v6.5h-7.5v5.8h2.3v2.9h2.6v5h-2.9v8.7h3.2v2.5h-2.6v5.8
	h2.9v5.8h-3.2v5.8h2.6v5.5h-2.9v6.2h3.2v3.6h-3.2v4.7h-4.5v12h-4.9v-13.4h-0.1V1077h-10.4v24.4h-6.7v-11.5h-10.5v11.5h-2.9
	c0-7.7,0.6-16.2-1.1-22.3c4.1-6.9,9.4-9.9,8-18.2c-1-6-6.6-8.2-10.7-11.5v-6.4H456c-0.3-1.5-0.8-2.9-1.4-4.3v-13.1h-3.3v-6.9H446
	l-2-32.2h-1.8V965c0.4-0.7,0.6-1.4,0.6-2.2c-0.2-0.2-0.4-0.4-0.6-0.6v-15.5h-2.6V961c-1.2-0.5-2.2-1.4-1.4-4
	c-1-18.5-2.1-45.5-3.4-67.3c-0.5-7.7-2.1-17.5-1.1-21.7c2-8.5,11.5-10.5,18.2-13.7c2.6-11,7.5-24.9,3.4-38.8
	c-8.9-2.4-9,3.9-14.8,4.6c-6.6-2.8-13.7,1-20.5-2.3c2-11.5-4.2-14.8-6.8-21.7c1.1-10.3,2-20.8,6.8-27.4c-8.2-2.5-12.5-8.8-10.3-21.7
	c-4-3.1-13.2-3.2-16-9.1c-1.8-3.9-0.8-15.6-1.1-27.4c-0.7-22.7-2-59.4-3.4-79.8c-0.6-8.3,8.8-18.4,3.4-28.5c1.4-3.6,6.6-3.2,6.8-8
	c-2.5-20.7-3.4-50.1-6.8-71.8c-2.8-18.1-7-34.1,10.3-39.9c6.2-23.8,29.5-30.5,39.9-50.2c-7.2-10.6,2.4-16.9,4.6-27.4
	c-15.7-7.4-29.5-16.8-45.6-23.8c-1.4,4.7-6.8,5.4-9.1,9.1c-3.1,2.9-3.6,8.6-8,10.3c-5.8-0.3-7.7-4.5-11.4-6.8
	c-5.7-17.5-5.5-31.3-13.7-45.6c-4.8-8.4-14.7-13-18.2-21.7c-2.3-5.6-5-15.4-4.6-20.5c0.3-3.5,3.4-5.9,3.4-10.3
	c0-4.9-2.9-10.1-3.4-16c-1.1-5.3,6.8-1.5,5.7-6.8c1.1-5.2-4-8-1.1-11.4c7.9-1.2,20.9,2.6,25.1-2.3c-7.6-3.1-20.4-0.9-23.9-8
	c2.9-8.9,18.1-5.5,22.8-12.5c-8.5-0.3-20.9,6.5-25.1,0c1.1-7.6,11.5-12.7,17.1-18.2c0.7-0.7,7-4,2.3-4.6
	c-11.2,4.3-20.3,17.9-34.2,12.5c-2.5-8.5,2.5-18.6,2.3-28.5c-9.7,8.3-6.9,29.9-20.5,29.7c-6.4-0.1-9.8-8.3-14.8-12.5
	c0.1,0.1-3.1-6-3.4-1.1c3,5,6.4,9.6,8,16c-5.5,6.4-20.4,7.3-28.5,2.3c-0.7-24.7-9.1-49.8-4.6-77.5c1.4-8.3,5.2-15,4.6-22.8
	c-0.7-9.4-10.4-15.9-5.7-25.1c1.3-6.7,13.7-2.3,13.7-10.3c1.2-3.7,0-13.6,0-17.1c-2.5-4.8-13.3-1.2-14.8-6.8
	c-0.6-8.2,7.8-7.4,6.8-16c-3-4-5-8.7-5.7-13.7c-3.5,0.2-6.5-2.7-9.1,0c-6,0.9,2-6.1-3.4-4.6c-7.9,2.5-10.4,8.6-10.3,18.2
	c0.1,6.5,4.2,12.7,2.3,17.1c-4.2,2.3-12.1,0.9-14.8,4.6c0.7,7.5,0.3,9.2,0,17.1c0.1,4.8,6.1,3.7,6.8,8c3.2,12.5,1.5,25.9,3.4,38.8
	c0.8,5.1,4,9.6,4.6,14.8c1.6,13.6-4.6,30.5-4.6,46.8c0,14,4.4,28.9,2.3,39.9c-1.2,6.5-7.4,10.8-10.3,17.1c-7.6,16.6-8.7,38.8,0,53.6
	c-1.3,4-3.5,7.1-3.4,12.5c2.9,7.4,10.9,9.7,13.7,17.1c-1.4,8.8-8.5,17.6-8,26.2s8.5,11.9,11.4,19.4c1.8,4.6,4.6,15.6,3.4,22.8
	c-1.3,7.5-12.1,17.7-13.7,28.5c-0.7,5.2-0.5,11.2,1.1,19.4c3.6,2.9,13.6-0.6,17.1,2.3c5.6,19.2-14.3,32.5-12.5,44.5
	c1,6.7,4.4,4.7,8,10.3c-6.4,19.4-1.4,40.7,1.1,59.3c1.5,10.8-9,20.5-6.8,30.8c-20.1,27.8-10.7,68.3-23.9,99.2
	c-1.7,3.9-5.6,8.4-8,12.5s-6.5,8.4-8,12.5c-1.6,4.3-0.4,9.5-2.3,13.7c-2,4.6-5.9,5.9-8,10.3v14.8c-2.1,5.1-9.9,4.5-11.4,10.3
	c9.8,9.3,7.2,32.7-3.4,39.9c-9.1,2.3-16,6.8-25.1,9.1c-1.6,11.3-6.3,27.2,0,36.5c4.5,4.6,13.7,4.6,16,11.4
	c0.4,52.5-8.2,95.9-6.8,149.4c-4.9,8.5-11.2,15.4-13.7,26.2c-9.6,3.3-9.5,16.4-12.5,26.2c1.3,3.3,3.6,5.4,4.6,10.3
	c2.3,12.1-1.4,27.3-8,31.9c0,3.4-0.1,6.8-0.4,10v-84.9H61.2v-19.3H0v342.9l7161,0.9v-124C7158.8,1248.8,7154.6,1250.3,7153.8,1248.5
	z M4136.6,1201.3c-0.5-0.1-0.9-0.1-1.3-0.2c-0.3,0-0.6-0.1-0.8-0.2c-0.1-0.1-0.2-0.1-0.2-0.1l0,0l0,0c0.1-0.2,1-0.4,2.3-0.6V1201.3z
	 M3967.3,892.6c-0.3-0.2-0.5-0.4-0.5-0.7l0,0c0-0.1,0.1-0.2,0.1-0.3l0.6,1H3967.3z M3028.4,906.6c-1.8,0.2-2.9-0.2-2.7-2
	c1-0.7,2.2-0.9,3.4-0.7C3029.2,905.1,3028.3,905.3,3028.4,906.6L3028.4,906.6z M3025,901.2c-0.3-2.1,1.8-1.8,2-3.4
	c1.4,0.2,0.6,2.5,2,2.7C3029,902,3026.2,900.8,3025,901.2L3025,901.2z M439.5,981.6c-0.4-3.7-0.8-7.3-1.4-10.8
	c0.2-1.1,0.6-2,1.4-2.8V981.6z M1171.9,777.8h-0.5l0.5-0.3V777.8z M1679.8,1156.4c-1.2,0.3-2.1,1.3-3.1,2.1
	c-0.1,7.6-0.9,13.7-0.5,22.1c-1.7-3.8-6.4-1.5-9.7-2.1c-3.2-5.3-9.3-4.9-12.4-10.5c-2.4,0-3.3,2.6-4.8,4.2c0.8-7.6-2.2-8.2-4.8-6.3
	c-2.9,2-1.1,13.2-1.6,20c-14.4,1-28.7,2.3-43.7,2.1c0.3-3.9-0.1-7.8-1.1-11.6c-2.2,0.5-3.4-3.3-5.9-4.2c-4.7-1.6-11.6,0.5-14.6,2.1
	c-2.4,1.4-3.8,4.6-5.4,4.2c-0.2-5.1,0.6-12.3-0.5-15.8c-4-0.7-7-3.2-10.2-5.2c-2.8,3.9-7.1,5.1-9.2,10.5c-0.7,6-0.5,13.7-3.2,15.8
	c-1.4-11.3-8.5-12.2-12.4-5.2c-0.8-3-2.9-2.1-3.8,0c-1.9-4-4.3-3.7-6.5-3.2s-2.4,4.1-4.3,5.2c-2.2,1.4-3.5-1.2-5.4,1
	c-1.3,6.2,0.2,18-1.1,24.2c-2.9,0.2-6.5-0.7-8.6,1.1c-1,2.3,0.1,8.6-1.1,10.5c-1.9-0.2-2.8,1.5-2.7,5.2c-0.8,2.4-3.8,0.4-5.4,1
	c-2.2-12.7,1.6-41.4-5.9-39.9c-3.5,0.7-2.9,8.9-4.8,14.7c-3.6,2.3-8.6-0.1-13.5-1c-0.4-46.6,0,0-0.5,0c-2.4-2.3-6.9,4.7-10.2,4.1
	c-1-3.2-0.1,25.4-1.6,23.2c-8.5-6.2-17.9-32.1-25.3-25.8c-0.3,5.3-0.5,30.9-0.5,0c-10,4-21.6-4.6-31.3,0v0.6l0,0
	c-0.6,18.6-0.5,9.7-0.2,0c-10.2,0.9-20.4,1.3-30.7,1.1V942.3l301.3,56.5v33l5.6,18.2L1679.8,1156.4z M1915.2,1100.4
	c1.5,5.2,4.2,14.7,7.2,24.8c-2.3-0.2-4.7-0.3-7-0.3c-0.1-0.1-0.1-0.2-0.2-0.3V1100.4z M1889.3,1053.1c0.4,0.8,0.9,1.7,1.4,2.5
	c1.5,5.2,4.6,15.8,8.1,27.3c-3.1-2.3-6.3-4.5-9.4-6.4c0-0.1-0.1-0.2-0.1-0.2V1053.1z M1899.1,1084.1c3.4,10.8,7.1,22.3,10.4,30.9
	c-7-12.1-13.5-24.5-19.5-37.3C1893,1079.6,1896.2,1081.8,1899.1,1084.1L1899.1,1084.1z M1888.1,1239.5h-27v-226.4
	c6.1,19.5,13.3,38.7,21.6,57.3c1.8,3.9,3.6,7.9,5.4,11.7V1239.5z M1888.1,1073.4c-0.7-1.5-1.4-3.1-2.1-4.6
	c-9.9-22.2-18.2-45.2-24.9-68.6v-3.6c8.7,19.3,17.8,37.4,27,54.2V1073.4z M1914,1239.5h-24.7v-154.8c7.4,15.4,15.7,30.4,24.7,44.9
	V1239.5z M1914,1122.5c-0.4-0.7-0.9-1.4-1.3-2.2c-3.6-8.3-8.2-22.2-12.3-35.4c5.9,4.4,11,8.8,13.6,11L1914,1122.5z M1914,1095
	c-2.8-2.4-8.1-6.8-14-11.3c-3-9.7-5.7-18.8-7.4-24.8c7.1,12.6,14.3,24.5,21.4,35.6V1095z M1925.7,1239.5h-10.5v-107.9
	c3.4,5.4,6.9,10.8,10.6,16.1L1925.7,1239.5z M1925.8,1141.1c-3.4-5.1-6.7-10.2-9.9-15.4c2.2,0,4.5,0.1,6.8,0.3c1,3.3,2,6.6,3.1,9.9
	V1141.1z M1925.8,1133.3c-0.8-2.4-1.5-4.8-2.3-7.3l2.3,0.3V1133.3z M1925.8,1125.6c-0.8-0.1-1.7-0.2-2.5-0.3
	c-3.7-12.2-6.9-23.7-8-27.7v-0.5c0.3,0.3,0.5,0.4,0.5,0.4l0.1-0.2c3.3,5.2,6.7,10.2,10,15L1925.8,1125.6z M1939.4,1148.6l-0.1-12.7
	c0.8,2.4,1.7,5.4,2.7,8.7L1939.4,1148.6z M1942.5,1143.8c-1.3-4.2-2.5-7.9-3.3-10.6v-1.9c2.1,2.8,4.1,5.5,6.1,8.2L1942.5,1143.8z
	 M2374.8,1210.1l-18-8.8c4.9-5.3,9.5-10.8,13.8-16.6l6.5,22.8C2376.3,1208.3,2375.6,1209.2,2374.8,1210.1L2374.8,1210.1z
	 M2341.1,1218.4l14.1,10.8c-3.6,3-7.2,5.9-11,8.7L2341.1,1218.4z M2342.7,1239c-1,0.7-1.9,1.4-2.9,2.1l-15.4-12.4
	c5.1-3.4,10.1-7.1,14.9-11L2342.7,1239z M2341,1216.3c4.8-4.1,9.4-8.3,13.8-12.9l4.2,22.6c-0.8,0.7-1.6,1.5-2.5,2.2L2341,1216.3z
	 M2351.1,1200.3l-9.1-9.4c13.4-13.7,24.4-29.7,32.4-47.1l11.2,5.1l1.2-2.7l-11.2-5.1c8.7-20,13.2-41.6,13.4-63.4l12.2,0.2
	C2400.9,1123.6,2382.9,1167.4,2351.1,1200.3L2351.1,1200.3z M2380.6,993.8c3,5.7,5.7,11.5,8.1,17.5l-11.2,4.1
	c-8-20-19.8-38.3-34.7-53.8l8.5-8.1C2362.9,965.5,2372.8,979.1,2380.6,993.8L2380.6,993.8L2380.6,993.8z M2242.3,1074.9l138.2,2.6
	c-0.2,20.6-4.5,41-12.7,60l-127-58C2241.5,1078,2242,1076.4,2242.3,1074.9L2242.3,1074.9z M2238.2,1061.2l98.4-93.7
	c14.2,14.6,25.4,31.9,32.9,50.9l-128.5,47C2240.3,1063.8,2239.3,1062.4,2238.2,1061.2L2238.2,1061.2z M2242.5,1071.9
	c0-1.2-0.2-2.4-0.5-3.6l128.6-47.1c6.4,17,9.7,35.1,9.9,53.3L2242.5,1071.9z M2378.6,1018.2l11.2-4.1c7.3,19.4,11.2,40,11.4,60.7
	l-12.2-0.2C2388.9,1055.3,2385.4,1036.2,2378.6,1018.2L2378.6,1018.2z M2340.7,959.5c-13.1-13.1-28.4-23.9-45.1-32l4.9-10.7
	c18.1,8.7,34.5,20.4,48.7,34.6L2340.7,959.5z M2292.9,926.2c-19.4-8.9-40.3-13.9-61.5-14.7l0.2-12c22.9,1,45.4,6.4,66.2,16
	L2292.9,926.2z M2334.5,965.3l-98.5,93.8l-0.4-0.3l56.4-123.6C2307.7,942.8,2322.1,952.9,2334.5,965.3L2334.5,965.3z M2236,1085.2
	l98,101.6c-14.8,14.6-32.3,26-51.5,33.8l-49.8-133.4C2233.8,1086.6,2234.9,1086,2236,1085.2L2236,1085.2z M2238.2,1083.2
	c0.4-0.4,0.7-0.8,1-1.2l127.4,58.2c-7.5,16.5-17.8,31.6-30.5,44.5L2238.2,1083.2z M2378.4,1206l-6.1-21.5l17.4,6.9
	C2386.1,1196.4,2382.3,1201.2,2378.4,1206L2378.4,1206z M2390.6,1190l-18.5-7.3c3.7-5.1,7.1-10.5,10.2-15.9l10,20.7
	c-0.6,0.8-1.2,1.6-1.8,2.5L2390.6,1190z M2393.4,1185.8l-9.1-18.7l17,5.3c-2.5,4.5-5.2,8.9-8,13.2L2393.4,1185.8z M2402.1,1171
	l-18.8-5.9c2.9-5.3,5.6-10.8,8-16.3l12.5,18.9c-0.6,1-1.2,2.1-1.7,3.2V1171z M2404.7,1166l-11.8-17.8l18.9,1.7
	c-2.2,5.4-4.6,10.8-7.2,16L2404.7,1166z M2412.4,1148.2l-20.1-1.8c2.3-5.5,4.3-11.2,6.1-17l15.1,15.9
	C2413.1,1146.1,2412.7,1147.1,2412.4,1148.2L2412.4,1148.2z M2414.1,1143.5l-13.6-14.3l18.2-0.9c-1.4,5.1-2.9,10.1-4.7,15.1
	L2414.1,1143.5z M2419.2,1126.7l-20.3,1c1.7-5.7,3.1-11.6,4.2-17.5l16.6,14.9c-0.2,0.4-0.3,1-0.4,1.5L2419.2,1126.7z M2420.1,1123.2
	l-15.7-14.1l19.2-5C2422.7,1110.5,2421.5,1116.8,2420.1,1123.2L2420.1,1123.2z M2423.8,1102.3l-20.2,5.3c1.1-6.7,1.9-13.5,2.3-20.3
	l18.2,12.4C2424,1100.5,2423.9,1101.3,2423.8,1102.3L2423.8,1102.3z M2424.3,1097.8l-16.9-11.6l17.9-4.6c-0.1,5.4-0.4,10.7-1,16
	V1097.8z M2425.3,1078.1c0,0.6,0,1.2,0,1.9l-19.3,5c0.1-2.7,0.2-5.4,0.2-8.1c0-3-0.1-6-0.2-9l19.3,10c-0.1,0-0.1,0-0.1,0.1
	L2425.3,1078.1z M2425.3,1076l-15.6-8.1l15.1-4.2c0.2,4,0.4,8,0.4,12.1L2425.3,1076z M2424.6,1062l-18.7,5.2
	c-0.2-4.8-0.7-9.5-1.3-14.1l19.8,6.9C2424.4,1060.6,2424.5,1061.3,2424.6,1062L2424.6,1062z M2424.3,1058.2l-17.4-6.1l15.2-9.5
	C2423,1047.7,2423.7,1052.9,2424.3,1058.2L2424.3,1058.2z M2421.8,1040.9l-17.4,10.8c-0.7-5-1.6-9.9-2.6-14.7l19.6,1.6
	C2421.4,1039.3,2421.6,1040.1,2421.8,1040.9L2421.8,1040.9z M2421,1036.9l-19-1.6l15.7-11.6C2418.9,1028,2420,1032.4,2421,1036.9
	L2421,1036.9z M2417.2,1022l-16.1,12c-1-4.3-2.2-8.5-3.6-12.7h19.5L2417.2,1022z M2416.5,1019.7h-16.2l13.1-9.1
	C2414.5,1013.5,2415.5,1016.5,2416.5,1019.7L2416.5,1019.7z M2411.7,1005.8c0.4,1,0.8,2,1.2,3.1l-15.8,11c-1.5-4.6-3.2-9.1-5-13.5
	L2411.7,1005.8z M2411.1,1004.2l-17.8,0.5l12.2-13.1C2407.5,995.7,2409.3,999.9,2411.1,1004.2L2411.1,1004.2z M2404.7,990.1
	l-13.5,14.4c-1.8-4-3.6-8-5.7-11.9l18.2-4.5C2404,988.7,2404.3,989.4,2404.7,990.1L2404.7,990.1z M2403,986.6l-17.5,4.3l12.3-13.8
	C2399.5,980.2,2401.2,983.3,2403,986.6L2403,986.6z M2395.4,973.3c0.5,0.8,1,1.6,1.4,2.3l-12.8,14.2c-2.7-5.1-5.7-10-8.9-14.7
	L2395.4,973.3z M2394.4,971.7l-18,1.7l8-16C2387.9,962,2391.2,966.7,2394.4,971.7L2394.4,971.7z M2383.3,956l-9,17.9
	c-3.2-4.7-6.6-9.2-10.2-13.5l17.3-6.8C2382,954.4,2382.6,955.2,2383.3,956L2383.3,956z M2369.9,940.6c3.6,3.8,7.1,7.7,10.4,11.7
	l-16.8,6.6L2369.9,940.6z M2366.6,937.2c0.7,0.7,1.4,1.4,2,2L2362,958c-3.4-4-7.1-7.9-10.9-11.6L2366.6,937.2z M2355.2,926.6
	c3.5,3,6.9,6.1,10.2,9.3l-14.2,8.5L2355.2,926.6z M2353.7,925.4l-4.3,19.3c-4-3.8-8.1-7.4-12.4-10.8l14.1-10.6
	C2352,924,2352.8,924.7,2353.7,925.4L2353.7,925.4z M2336.5,912.5c4.6,3,9,6.3,13.3,9.7l-14.1,10.6l-0.1-0.1L2336.5,912.5z
	 M2334.9,911.5l-1,20c-4.5-3.4-9.2-6.7-14.1-9.7l12.2-12.2C2333,910.2,2333.9,910.8,2334.9,911.5L2334.9,911.5z M2330.6,908.7
	l-12.2,12.2l0,0l-2.4-20.3C2321,903.1,2325.8,905.8,2330.6,908.7L2330.6,908.7z M2314.3,899.7l2.3,20.1c-7.1-4.2-14.4-7.9-22-11.1
	l14.6-11.4C2310.9,898.1,2312.6,898.9,2314.3,899.7L2314.3,899.7z M2307.5,896.6l-14,11l-2.8-17.6
	C2296.4,891.8,2302,894,2307.5,896.6L2307.5,896.6z M2284.7,888c1.4,0.4,2.8,0.9,4.2,1.3l2.9,18.3c-5.8-2.3-11.7-4.4-17.8-6.1
	L2284.7,888z M2283,887.5l-10.3,13.1l-2.3-16.4C2274.7,885.1,2278.8,886.2,2283,887.5L2283,887.5z M2268.7,883.8l2.3,16.7
	c-4.9-1.3-9.9-2.5-15-3.4l9.5-14.1C2266.6,883.3,2267.6,883.5,2268.7,883.8L2268.7,883.8z M2263.8,882.8l-9.6,14.2l-0.8-0.1l-5-16.3
	C2253.6,881,2258.7,881.8,2263.8,882.8L2263.8,882.8z M2243.9,880.1c0.9,0.1,1.8,0.2,2.7,0.2l5,16.2c-4.5-0.7-9.1-1.2-13.7-1.6
	L2243.9,880.1z M2242.2,879.9l-5.8,14.2l-6.8-14.8C2233.8,879.3,2238,879.5,2242.2,879.9L2242.2,879.9z M2223.5,879.3
	c1,0,2.1,0,3.1,0h1.3l7.1,15.4c-3.7-0.2-7.4-0.3-11.1-0.3c-1.6,0-3.3,0-4.9,0.1L2223.5,879.3z M2221.7,879.3l-4.6,14.9l-9.8-14.1
	C2212.1,879.7,2216.9,879.4,2221.7,879.3L2221.7,879.3z M2202.5,880.7l3-0.3l9.8,14.2c-4.8,0.2-9.5,0.6-14.2,1.2L2202.5,880.7z
	 M2200.8,880.9l-1.3,14.8l-12.5-12.6C2191.5,882.3,2196.1,881.5,2200.8,880.9L2200.8,880.9z M2181.1,884.5c1.3-0.3,2.6-0.6,3.9-0.9
	l12.6,12.6c-5.9,0.8-11.6,2-17.3,3.3L2181.1,884.5z M2179.5,884.9l-0.7,15.1l-0.6,0.1l-11.8-11.6
	C2170.7,887.2,2175,886,2179.5,884.9L2179.5,884.9z M2164.6,889.2l11.7,11.5c-5.6,1.5-11.1,3.3-16.5,5.3l1.8-15.8
	C2162.5,889.8,2163.5,889.5,2164.6,889.2L2164.6,889.2z M2159.8,890.8l-1.8,15.8l-0.5,0.2l-12-10.3
	C2150.2,894.4,2154.9,892.5,2159.8,890.8L2159.8,890.8z M2143.9,897.3l11.9,10.2c-4.7,1.9-9.2,4-13.8,6.2l-0.9-15.1L2143.9,897.3z
	 M2139.5,899.3l0.9,15.2l-0.5,0.2l-11.5-9.5C2132,903.1,2135.7,901.2,2139.5,899.3z M2126.9,906.1l11.5,9.5
	c-4.4,2.3-8.6,4.8-12.8,7.5l-1-15.6L2126.9,906.1z M2123,908.4l0.9,15l-10.5-8.8C2116.6,912.5,2119.7,910.4,2123,908.4L2123,908.4z
	 M2112,915.6l10.9,9.2c-3.7,2.5-7.3,5-10.8,7.8l-2.3-15.3C2110.6,916.7,2111.3,916.1,2112,915.6z M2108.3,918.3l2.2,14.7l-11.9-7
	C2101.8,923.3,2105,920.8,2108.3,918.3L2108.3,918.3z M2097.2,927.1l12.5,7.3c-3.3,2.7-6.6,5.5-9.8,8.4l-4.2-14.4L2097.2,927.1z
	 M2094.4,929.7l4,13.9l-14.5-3.8C2087.3,936.3,2090.8,932.9,2094.4,929.7L2094.4,929.7z M2082.5,941.1l15.1,4
	c-3.7,3.5-7.2,7.2-10.6,11.1l-6.7-12.6C2081.1,942.7,2081.8,941.9,2082.5,941.1L2082.5,941.1z M2079.1,944.8l6.1,11.6l-13.6-2.8
	C2074,950.6,2076.6,947.7,2079.1,944.8L2079.1,944.8z M2070.4,955.1l14.8,3c-3.3,3.9-6.5,7.9-9.4,12l-7.1-12.8
	C2069.3,956.6,2069.9,955.8,2070.4,955.1L2070.4,955.1z M2067.6,958.7l7.1,12.7l-14.5-2C2062.6,965.8,2065.1,962.2,2067.6,958.7
	L2067.6,958.7z M2059.1,970.9l14.6,2.1c-2.7,3.9-5.3,8-7.8,12.2l-8.7-11.3C2058,972.9,2058.6,971.9,2059.1,970.9L2059.1,970.9z
	 M2056.4,975.3l8.6,11.2h-14.9C2052.1,982.7,2054.2,979,2056.4,975.3L2056.4,975.3z M2049.2,988.2h15c-1.9,3.4-3.7,6.9-5.4,10.5
	l-10.4-8.9C2048.8,989.3,2049,988.7,2049.2,988.2L2049.2,988.2z M2047.7,991.3l9.3,8l-14,2.5
	C2044.5,998.2,2046.1,994.7,2047.7,991.3L2047.7,991.3z M2042.2,1003.6l15.7-2.8c-2.1,4.6-4,9.3-5.8,14.1l-10.8-8.9
	C2041.6,1005.2,2041.9,1004.4,2042.2,1003.6L2042.2,1003.6z M2040.7,1007.6l9.7,7.9l-13.8,4.2
	C2037.8,1015.7,2039.2,1011.6,2040.7,1007.6L2040.7,1007.6z M2035.9,1021.6l15.5-4.7c-2,5.9-3.8,11.8-5.2,17.9l-11.4-9.1
	C2035.2,1024.3,2035.6,1023,2035.9,1021.6L2035.9,1021.6z M2041.8,1088.9c0.4,5.5,1,11,1.8,16.4l-14-0.6c-0.2-1.2-0.3-2.5-0.5-3.7
	L2041.8,1088.9z M2028.9,1098.9c-0.4-3.9-0.7-7.9-0.9-11.9l11.8,1.4L2028.9,1098.9z M2043.8,1107l-11.9,10.9
	c-0.8-3.8-1.4-7.7-2-11.6L2043.8,1107z M2044.2,1108.9c0.8,4.7,1.8,9.2,3,13.7l-14.3,0.3c-0.2-1-0.5-2.1-0.7-3.1L2044.2,1108.9z
	 M2034.3,1027.4l10.2,8.2l-13.6,6.9C2031.9,1037.4,2033,1032.4,2034.3,1027.4L2034.3,1027.4z M2030.6,1044.5l15.1-7.7
	c-1.1,5.1-2.1,10.3-2.8,15.6l-12.6-6.2C2030.5,1045.6,2030.6,1045.1,2030.6,1044.5L2030.6,1044.5z M2030.1,1047.9l12.7,6.2v0.1
	l-14.3,7.7C2028.9,1057.2,2029.4,1052.5,2030.1,1047.9L2030.1,1047.9z M2028.3,1063.8l14.2-7.6c-0.8,6.8-1.2,13.6-1.2,20.5
	c0,3.5,0.1,6.9,0.3,10.3l-13.7-1.7c-0.1-1.5-0.1-3-0.1-4.5l13.6-11.9l-13.3-2.5C2028.2,1065.5,2028.3,1064.7,2028.3,1063.8
	L2028.3,1063.8z M2028.1,1068l9.8,1.9l-10,8.7c0-0.2,0-0.5,0-0.8C2027.8,1074.6,2027.9,1071.4,2028.1,1068L2028.1,1068z
	 M2015.3,1258.6l-15.2-1.1V1232c5,4.4,9.7,8.3,14,11.7l-0.1,0.1l0.5,0.6c0.1-0.1,0.1-0.1,0.2-0.2l0.8,0.6L2015.3,1258.6z
	 M2006.3,1221.9c-2,1-4.1,2.2-6.1,3.4v-18.2C2001.9,1211.4,2004.1,1216.7,2006.3,1221.9L2006.3,1221.9z M2000.2,1205.1v-2.6
	c5.7,5.7,10.9,10.6,15.8,15c-1.8,0.7-5.2,2.1-9,4C2004.4,1215.6,2002,1209.6,2000.2,1205.1L2000.2,1205.1z M2006.6,1222.6
	c2.6,6,5.3,11.9,7.6,16.3c-4.4-3.5-9.1-7.5-14.1-11.9v-0.7C2002.3,1225,2004.5,1223.8,2006.6,1222.6L2006.6,1222.6z M2015.7,1240.1
	c-2.5-4.5-5.6-11.2-8.4-17.8c3.8-1.9,7.2-3.3,9-4L2015.7,1240.1z M2034,1260l-17.5-1.3l0.3-12.9c7,5.4,12.9,9.6,17.2,12.5V1260z
	 M2026.1,1235.8c-3,1.7-6,3.5-8.8,5.6l-0.3-0.3l0.5-22.2l2.8,2.5C2021.6,1225,2023.8,1230.3,2026.1,1235.8L2026.1,1235.8z
	 M2021.3,1222.3c4.4,3.9,8.3,7.2,11.6,9.9c-1.3,0.6-3.6,1.8-6.2,3.2C2024.6,1230.6,2022.7,1225.8,2021.3,1222.3L2021.3,1222.3z
	 M2034,1253.7c-4.3-2.9-9.8-6.9-16.2-11.9c2.7-1.9,5.6-3.7,8.5-5.4c2.6,5.9,5.3,12,7.6,16.1L2034,1253.7L2034,1253.7z M2034,1251.3
	c-2.2-4.1-4.7-9.7-7.1-15.1c2.9-1.6,5.3-2.8,6.6-3.4l0.5,0.4V1251.3z M2034,1228.3c-11.8-9.8-23.1-20.1-33.8-31.1l0.1-93.5l-3.3-5.5
	c4.5,4.5,11.7,4.9,16.6,0.9c0.7,7.1,1.8,14.2,3.2,21.3c-6.5-2.2-13.5,1.3-15.8,7.8c-2.2,6.5,1.3,13.5,7.8,15.8
	c4.6,1.6,9.8,0.3,13.1-3.3c2,6.5,4.3,12.9,6.9,19.2c-6.7-1.4-13.3,2.9-14.7,9.6c-1.4,6.7,2.9,13.3,9.6,14.7
	c3.7,0.8,7.5-0.1,10.4-2.5L2034,1228.3L2034,1228.3z M2033.4,1124.5l13.5-0.2l-10.8,10.2C2035.1,1131.2,2034.2,1127.9,2033.4,1124.5
	L2033.4,1124.5z M2036.6,1136.2l11.4-10.8c0.9,3.2,1.9,6.4,2.9,9.5h-0.1l1,2.8l0,0c0.2,0.6,0.4,1.1,0.6,1.7l-15-0.2
	c-0.2-0.9-0.6-1.9-0.9-2.9L2036.6,1136.2z M2038.1,1140.8l15.1,0.2l0.3,0.7l-10.8,11.2C2041,1149.1,2039.5,1145,2038.1,1140.8
	L2038.1,1140.8z M2044.3,1153.6l9.8-10.1c1.1,2.7,2.2,5.4,3.4,8L2044.3,1153.6z M2059.5,1143.9c-0.6-1.4-1.2-2.9-1.7-4.3l0.1-0.1
	h-0.1c-0.4-1.1-0.9-2.3-1.3-3.5l3-1.1V1143.9z M2062.5,1150.7c-0.7-1.5-1.3-3-2-4.6v-11.5l9.2-3.4c2.1,5.9,4.5,11.6,7.3,17.2
	L2062.5,1150.7z M2213.5,1061.8c-1,1.2-1.8,2.5-2.4,3.9l-127-58c8.3-17,19.6-32.4,33.4-45.4L2213.5,1061.8z M2119.7,960.3
	c14.8-13.5,32-23.9,50.8-30.9l47.9,128.4c-1,0.6-2,1.2-2.8,2L2119.7,960.3z M2210.2,1068.7c-0.2,0.8-0.3,1.6-0.3,2.5l-141.2-2.6
	c0.9-20.1,5.7-39.8,14.1-58L2210.2,1068.7z M2210,1074.3c0.1,0.8,0.3,1.5,0.5,2.3l-133.8,49c-5.4-16-8.2-32.9-8.1-49.8
	c0-1.4,0-2.8,0.1-4.2L2210,1074.3z M2143.3,1137.8v-19.1h-0.9v19.2l-56.6,9.1c-3.1-6-5.8-12.3-8.1-18.7l133.9-49
	c0.3,0.7,0.7,1.3,1.1,1.9l-65.6,62.5L2143.3,1137.8z M2148.6,1146.4l65.9-62.8c1.4,1.4,3,2.5,4.8,3.4l-38.1,83.5v-8.8h-23.1
	L2148.6,1146.4z M2187.1,1263.3l-0.5,0.7c-1.8,0-3.6,0-5.3-0.1v-9.7c2.4,0.6,4.8,1.1,7.2,1.6L2187.1,1263.3z M2189.4,1250.8
	c-2.7-0.5-5.4-1.1-8.1-1.8v-14.5c3.5,1,7,1.8,10.6,2.5L2189.4,1250.8z M2181.3,1225.7v-48l36.1-79.1l-24,130.1
	C2189.3,1227.8,2185.3,1226.8,2181.3,1225.7L2181.3,1225.7z M2206.1,1263.8l0.6-5.5c2.1,0.2,4.3,0.4,6.4,0.5l-2.3,5H2206.1z
	 M2212.7,1263.7l2.3-4.8l1.5,0.1l2.2,4.6L2212.7,1263.7z M2220.9,1263.5h-0.4l-2.2-4.5c0.9,0,1.7,0,2.6,0L2220.9,1263.5z
	 M2220.9,1254.2c-1.7,0-3.3-0.1-5-0.2l-0.3-0.5l-0.2,0.5c-2.7-0.1-5.4-0.3-8.1-0.6l1.5-13.9c4,0.4,8,0.6,12.1,0.7V1254.2z
	 M2220.9,1231.7c-3.8-0.1-7.5-0.3-11.2-0.7c5.1-46.6,8.7-80.5,11.2-104V1231.7z M2225.8,1055.9c-1.5,0-3.1,0.3-4.5,0.8l-47.9-128.2
	c16.4-5.7,33.7-8.6,51.1-8.6c1.2,0,2.5,0,3.7,0L2225.8,1055.9z M2228.3,911.3c-1.3,0-2.6,0-3.8,0c-18.4,0-36.7,3.1-54.1,9.2
	l-4.3-11.4l-2.8,1l4.2,11.4c-19.9,7.4-38.1,18.5-53.7,32.8l-8.6-8.9l-2.2,2.1l8.5,8.8c-46.8,44.1-63.5,111.4-42.9,172.2l-13.1,4.8
	c-6.2-18.2-9.3-37.4-9.3-56.6c0-97.9,79.6-177.5,177.5-177.5c1.6,0,3.2,0,4.8,0.1L2228.3,911.3z M2231.2,919.9
	c20.1,0.8,39.9,5.6,58.1,14l-56.3,123.4c-1.3-0.6-2.7-1-4.2-1.3L2231.2,919.9z M2230,1231.6v-96c2.8,23.4,6.6,55,11.4,95.1
	C2237.7,1231.2,2233.9,1231.5,2230,1231.6z M2242.4,1239.3l1.6,13.7c-2.1,0.2-4.1,0.4-6.2,0.6l-0.1-0.2l-0.1,0.2
	c-2.5,0.2-5.1,0.3-7.7,0.4v-13.9C2234.2,1240,2238.4,1239.7,2242.4,1239.3L2242.4,1239.3z M2234.7,1263.3h-4.7v-4.4
	c2.1-0.1,4.1-0.2,6.2-0.3L2234.7,1263.3z M2236.4,1263.3l1.5-4.8l0.6-0.1l2.6,4.9C2239.6,1263.3,2238,1263.3,2236.4,1263.3
	L2236.4,1263.3z M2243,1263.4l-2.7-5.1c1.4-0.1,2.9-0.3,4.3-0.4l0.7,5.7L2243,1263.4z M2230.2,1089.3l49.4,132.4
	c-7.5,2.9-15.3,5.1-23.2,6.8L2230.2,1089.3z M2258,1236.8c8.4-1.7,16.6-4.1,24.6-7.2l4.6,12.3l2.8-1l-4.6-12.3
	c20.3-8.1,38.8-20.3,54.4-35.6l9.1,9.4c-24.2,24.2-54.9,40.9-88.4,48L2258,1236.8z M2264.8,1272.9l-3.1-16.7l10.8,15
	C2269.9,1271.9,2267.4,1272.4,2264.8,1272.9L2264.8,1272.9z M2274.2,1270.9l-11.5-16c5.9-1.3,11.7-2.9,17.3-4.7l-2.5,19.9
	C2276.4,1270.3,2275.3,1270.6,2274.2,1270.9L2274.2,1270.9z M2279.2,1269.5l2.5-20l0.3-0.1l13.4,14.8
	C2290.1,1266.3,2284.7,1268,2279.2,1269.5L2279.2,1269.5z M2300.8,1262.2c-1.3,0.5-2.5,1-3.8,1.5l-13.3-14.8
	c6-2.1,11.9-4.5,17.7-7.2L2300.8,1262.2z M2302.5,1261.5l0.6-20.2l14,13.4C2312.4,1257.2,2307.5,1259.5,2302.5,1261.5L2302.5,1261.5
	z M2318.6,1254l-14.3-13.7c5.9-2.9,11.6-6.1,17.1-9.7l1.1,21.3C2321.2,1252.6,2319.9,1253.3,2318.6,1254L2318.6,1254z
	 M2323.1,1229.7l15.3,12.4c-4.6,3.2-9.4,6.1-14.2,8.9L2323.1,1229.7z M2361.4,1273.1c-11.7-0.2-13.3,4-17.7,6.9
	c-4.2-3-2.3-8.6-7.4-11.3h-0.2c-1.5-1.8-3.4-3.1-5.6-3.8c9.3-5.2,18.3-11.1,26.7-17.7c0,0.3-0.1,0.7-0.1,1.1c0,4.8,2.7,9.1,7,11.2
	C2361.9,1263.5,2361.6,1268.3,2361.4,1273.1L2361.4,1273.1z M2360.4,1224.6l-4-21.8l17.3,8.5C2369.4,1216,2365,1220.4,2360.4,1224.6
	L2360.4,1224.6z M2588.7,675.3c0-2.1,0-132.6,0-138.2c0,5.8,0,79,0,86.2c0.6,53.3,8.1,250.6,24.5,312.6h-39.5
	C2588,881.1,2588.7,726.3,2588.7,675.3z M2553.8,1073.8L2553.8,1073.8L2553.8,1073.8c4.4-22.8,8.6-48.1,12.8-77.1h49.2
	c6.9,46.9,13.4,84.1,21.5,116.9v0.1h0.1c0.3,1.4,0.7,2.8,1.1,4.3h-94.3C2547.5,1104.2,2550.7,1089.6,2553.8,1073.8z M2688.9,1270
	c0.9-3.7-1.5-6.1-5.9-7.5c-7.6-0.1-8.3,2.8-10.3,5c-12.4-4.4-30.3,2.2-41.3,4.4v10c-2.1,1.2-9.7,0.1-11.8,1.2
	c0.8,5.8-13.7,5.1-16.2,9.4c-5.1-1.2-9.2-2.4-16.2-1.2c-5.1,0.8-0.9,5.5-4.4,6.9c-13.4-2.2-8.7,6.1-17.7,3.8c-5.5-0.5-2.8-3.6-3-5
	c-1.3-14.5,2.2-30.5-1.5-43.2c-19.7-0.9-42,0.3-64.5,0.7c2.2-2.6,4.6-5.2,7-7.6c48.7-48.7,127.7-48.7,176.5,0
	c4.6,4.6,8.9,9.6,12.7,14.9C2691.3,1264.5,2691.8,1268,2688.9,1270z M2859.5,1270.1c-9,0.2-18.1,0.3-27.4,0.4
	c1.2-48.6,2-97.6,3.6-145.8c0.7-1.5,1.8,0.1,2.7-1.4c0.7-1.1-1.1-3.4,0.7-4c1.6-0.1,3.2-0.1,4,0.7c0.4-1.8-0.8-5.4,0.7-6.1h19
	C2862.1,1165.7,2860.2,1218.2,2859.5,1270.1z M2949.7,1269.8c-13.5,1-27.9,0.3-42.2-0.3c0.7-48,1.6-95.8,2.1-144.1
	c0-2.1,3.4-0.7,3.4-2.7c-1.1-3.4,2.1-2.4,3.4-3.4c0.4-1.6-0.8-4.9,0.7-5.4c10.7,1.2,24-0.1,34.5,1.4
	C2950.6,1166.5,2950.3,1218.3,2949.7,1269.8L2949.7,1269.8z M3066.5,956.5c-0.8,1.7-1.4,3.4-1.7,5.2l-1.9,3.8l0.5,0.9
	c-0.3-0.1-0.5-0.3-0.8-0.5l-0.4,0.8c0.1-0.3,0.2-0.7,0.3-1c-0.2-0.2-0.2-0.5,0-0.7l0,0l0.1,0.1c0.4-2.6-0.3-5.1,0.5-8.3
	c-2.1-1.8-3.5-4.3-4-7.1L3066.5,956.5z M3061.8,983.9c-0.2-4.2-0.3-8.4,2-10.2c0-1.6-1.4-1.7-1.9-2.8c0.1-0.4,0.2-0.9,0.4-1.3
	c0.5-0.1,1.1-0.2,1.6-0.3l-1.3-0.2c0.3-0.3,0.7-0.4,1.4-0.2c2,4.9,1.2,12.4,0,16.9h-2.5v-1.6
	C3062.4,983.9,3063.3,983.6,3061.8,983.9L3061.8,983.9z M3060.3,985.1v0.7C3059.8,985.6,3059.9,985.3,3060.3,985.1L3060.3,985.1z
	 M3049.6,977.2c0.8-0.1,1.2,0.1,1.3,0.7c0.6,2.7,0.8,5.4,0.7,8.1h-3.4C3048.1,982.4,3050,981,3049.6,977.2L3049.6,977.2z
	 M3036.7,978.5c2.9-0.6,5.8-0.9,8.8-0.7c-0.3,3.2,1.2,4.7,0.7,8.1h-9.5V978.5z M3031.7,897.8c4.2-0.2,4.6,7.6,1.4,8.8
	c-2.1,0.2-1.4-2.2-2-3.4c1.2-0.1,1.4,0.8,2.7,0.7c0.9-0.2,0.6-1.7,0.7-2.7c-0.1-1.5-1.7,0.9-3.4,0
	C3030.9,899.5,3032.4,899.7,3031.7,897.8L3031.7,897.8z M3030.8,909.2c0,0-0.1,0-0.1-0.1C3030.1,907,3030.5,908,3030.8,909.2
	L3030.8,909.2z M3029.4,915.2v3.4h-3.4C3026.5,916.7,3026.8,914.8,3029.4,915.2L3029.4,915.2z M3023.8,977.8
	c3.5-0.6,4.9,0.9,8.1,0.7c0.8,1.9,0.8,4.7,0.7,7.4c-4.8,1.8-7.5-4.5-8.8,0C3021.8,983.9,3024.7,981,3023.8,977.8L3023.8,977.8z
	 M3019.8,977.1c-0.8,3.6,2.6,6.4,0.7,8.8c-3,0.1,0.3-1.9-1.4-2.7c0-1.6-1.1-2-0.7-4.1c-0.8-0.1-0.6-1.2-0.6-2H3019.8z M3012.3,977.8
	c2.1-0.9,3.8,5.9,0.7,7.4C3010.6,983.6,3014.8,979.4,3012.3,977.8L3012.3,977.8z M3005.6,970.5c0.1,0.5,0.2,1,0.1,1.5
	C3005.5,971.5,3005.5,971,3005.6,970.5L3005.6,970.5z M3004.9,975.3c0.5,0.4,1.1,0.6,1.3,1.2v9.5h-1.5L3004.9,975.3z M3003.6,970.4
	c0.1,0,0.1,0,0.2,0l-0.3,15.6h-1.3C3004.6,982.6,3001.6,975.3,3003.6,970.4L3003.6,970.4z M2983.3,985.9c1.6-4-4.3-11.2,0.7-14.9
	c0.9,0.9,2.9,0.7,4.8,0.7c0-0.9,0.1-1.9-0.7-2c0.8-1.8,1.8,1.8,2.7,2c0,2,1.8,2.3,2,4.1c-1.3,3.5,0.4,5.8,0,10.2
	c-2.1,0.5-1.3-1.8-3.4-1.3S2986.4,986.6,2983.3,985.9L2983.3,985.9z M3067.2,1126v143.3c-3.6-0.2-7.3-0.4-11-0.6c-1-27.8,0,0-1.5,0
	c-6.7-1.3-19,2.8-28,2.4c-1.5-1-1.5,3.5-1.8,7.7h-25.5c-4.5-1.5-9-3.1-13.4-4.5c0.1-50.2,0.4-100.2,1.2-149.7
	c-0.2-1.8,3.8,0.6,2.7-2c-0.2-1.8-0.2-3.4,2-2.7c0.4-1.6-0.8-4.9,0.7-5.4h70.4c-0.1,1.9,0.4,4.4-0.7,5.4c2.7-0.9,2,1.6,2,3.3
	C3064.9,1124.8,3067.9,1123.6,3067.2,1126L3067.2,1126z M3072,985.9c-2.2,0.6-1.1-2.3-1.4-3.4c-0.7-3.4-0.6-8.5,1.4-11.5
	c0.6,0.4,1.3,0.7,2,0.7C3074.3,977.4,3070.9,979.3,3072,985.9L3072,985.9z M3079.5,983.9c-1.2-0.1-1.4,0.8-2.7,0.7
	c-0.1-6.8,2.9-10.7,5.4-14.9c0.4,0,0.6,0.4,0.6,0.8c0,0.3-0.3,0.6-0.6,0.6c1.2,0.9,3.8-0.4,6.1,0.7c0.5,3.9-0.7,7.9-3.4,10.8
	c-0.2,1.6,0.2,2.6,1.4,2.7C3084.8,986.8,3079.5,986.3,3079.5,983.9L3079.5,983.9z M3120.5,1278.9c-1.1-8.2,2.2-19-14.2-18.3
	c-3.9,0.2-6,1.1-7.4,2.3c-0.2-49.5,0.3-99.7-0.7-148.4h39.9v5.4c1,0.4,3.5-0.8,3.4,0.7c-1.3,4,2.4,2.9,2.7,5.4
	c0.1,51.2,1,101.7,1.2,152.8L3120.5,1278.9z M3218.5,1257.5c-5.1-2.4-11.8-2.2-17.7-1.9c-5.5,0.3-6.6,2.4-11.8,3.1l-1.1,0.1
	c-0.1-24.1,0.9-48.4-0.2-72.6c-0.7-15.9,0.1-34-0.6-50.8c-0.3-7.1-1.7-14,0-21h23.7v5.4c1.2,0.4,4-0.8,4.1,0.7
	c-1.3,4,2.1,3.2,2.7,5.4c1,43.4,1.5,87.3,2.3,130.9C3219.3,1257.1,3218.9,1257.3,3218.5,1257.5L3218.5,1257.5z M3757.1,1071.4
	c0-7.4,5.5-13.5,12.2-13.5s12.2,6,12.2,13.5v32.2c-8.1-1.4-16.2-2.7-24.4-3.8V1071.4z M3718.5,988.4h11.9v16.5h-11.9V988.4z
	 M3717.4,1065.7c0-7.5,5.6-13.6,12.6-13.6s12.6,6.1,12.6,13.6v32.4c-8.3-1-16.7-1.8-25.1-2.4L3717.4,1065.7z M3635.7,982.6h11.9
	v16.5h-11.9V982.6z M3586.6,1064.1c0-8.2,5.9-14.9,13.2-14.9s13.2,6.7,13.2,14.9v24.2c0,1.6-0.2,3.1-0.7,4.7
	c-8.4,0.2-16.7,0.4-24.8,0.8c-0.6-1.8-0.9-3.6-0.9-5.5V1064.1z M3553.8,984.1h11.9v16.5h-11.9V984.1z M3545,1064.1
	c0-8.2,5.9-14.9,13.2-14.9s13.2,6.7,13.2,14.9v24.2c0,2.2-0.4,4.3-1.2,6.3c-7.9,0.4-15.7,0.9-23.2,1.4c-1.3-2.4-1.9-5-1.9-7.7
	L3545,1064.1z M3502.7,1067.7c0-8.2,5.9-14.9,13.2-14.9s13.2,6.7,13.2,14.9v24.2c0,1.9-0.3,3.7-0.9,5.5c-8.1,0.7-16,1.4-23.6,2.1
	c-1.3-2.3-1.9-5-1.9-7.6V1067.7z M3477.2,998.2l11.4-1v16.5l-11.4,1V998.2z M3465.8,1074.3c0-8.2,5.9-14.8,13.2-14.8
	s13.2,6.7,13.2,14.8v24.2c0,0.8-0.1,1.6-0.2,2.3c-9,1-17.5,1.9-25.4,2.9c-0.6-1.7-0.9-3.5-0.9-5.3L3465.8,1074.3z M3463.7,1129.5
	c8.6,0.7,14.9,8.7,14.3,17.9l-2,27c-0.2,3.4-1.5,6.7-3.6,9.4c-8,0.3-15.6,0.6-22.9,0.9c-3.2-3.5-4.8-8.2-4.4-12.9l2-27.1
	C3447.6,1135.6,3455.1,1128.8,3463.7,1129.5L3463.7,1129.5z M3429.2,1100.1l1.9-24.2c0.7-8.2,7.1-14.2,14.4-13.5s12.6,7.9,12,16.1
	l-2,24.2c-0.1,0.9-0.2,1.7-0.4,2.6c-9.2,1.2-17.4,2.4-24.3,3.4C3429.5,1106,3428.9,1103,3429.2,1100.1L3429.2,1100.1z
	 M3345.5,1063.1l-4.2,2.4l2-13.9l4-2.2L3345.5,1063.1z M3377,1045.1l-4.6,1.2l0.9-13.6l5.1-2.4L3377,1045.1z M3418,1014l8.8-3.2
	l-2.2,16.5l-8.4,2.2L3418,1014z M3458,1237l-2.4,25.8c-10.3,0.1-20.7,0.2-31.2,0.3l2.7-28.9c1-11.1,8.8-19.5,17.4-18.7
	S3459,1225.9,3458,1237L3458,1237z M3500.2,1262.2c-10.3,0.2-20.7,0.3-31,0.5v-26.4c0-10.7,7-19.4,15.5-19.4s15.5,8.7,15.5,19.4
	V1262.2z M3490.2,1183.3c-2.1-3-3.2-6.7-3.2-10.4V1145c0-9.4,7-17.1,15.5-17.1s15.5,7.6,15.5,17.1v27.9c0,3.4-0.9,6.7-2.7,9.6
	C3506.6,1182.7,3498.2,1183,3490.2,1183.3L3490.2,1183.3z M3547.8,1251.4c-4.6,0.3-7,1.6-10.6,2.4c2.1-4.5-5.9-4.9-13.3-3.8
	c-8.1,1.2-3,7.9-4.4,11.9h-2.8v-28.2c0-12.5,7-22.7,15.5-22.7s15.5,10.2,15.5,22.7L3547.8,1251.4z M3561.6,1170.7
	c0,3.9-1.2,7.7-3.5,10.8c-8,0.1-15.9,0.3-23.6,0.5c-2.6-3.2-3.9-7.2-3.9-11.3v-27.8c0-9.4,6.9-17.1,15.5-17.1s15.5,7.6,15.5,17.1
	V1170.7z M3595.3,1257.5c-3.8,0.1-7.6,0.2-10.9,0c-5.1-1.8-12.9-2.5-20.1-3.4v-21c0-12.5,7-22.7,15.5-22.7s15.5,10.2,15.5,22.7
	V1257.5z M3606.6,1170.7c0,3.7-1.1,7.3-3.2,10.4c-8.3,0-16.4,0.1-24.5,0.2c-2.2-3.1-3.4-6.8-3.3-10.6v-27.8c0-9.4,7-17.1,15.5-17.1
	s15.5,7.6,15.5,17.1V1170.7z M3641.6,1239.6l-5.5-1.5c-6.4,1.1-9.3,3.6-11.8,6.3c-5.4-0.2-8.2,0.7-11.8,1.2
	c-0.2,4.5-2.4,8.2-1.5,13.2c-0.1-0.1-0.3-0.1-0.4-0.2v-21.9c0-12.5,6.9-22.7,15.5-22.7s15.5,10.2,15.5,22.7V1239.6z M3652.8,1172.9
	c0,2.9-0.7,5.7-2,8.3c-9.1-0.1-18.2-0.1-27.2-0.2c-1.2-2.5-1.9-5.3-1.9-8.1V1145c0-9.4,7-17.1,15.5-17.1s15.5,7.6,15.5,17.1
	L3652.8,1172.9z M3656.8,1092.2c0,0.2,0,0.4,0,0.6c-9.3-0.1-18.5-0.2-27.7-0.1c0-0.2,0-0.3,0-0.5v-30c0-8.4,6.2-15.3,13.9-15.3
	s13.9,6.9,13.9,15.3L3656.8,1092.2z M3690.5,1256.7c-4.8,0.5-9.7,0.6-14.6,0.2c-0.8-4,1.7-9.5-1.5-12.5c-5-0.1-10-0.4-15-1.1v-4.3
	c0-11.4,7-20.6,15.5-20.6s15.5,9.2,15.5,20.6L3690.5,1256.7z M3698.4,1174.3c0,2.7-0.6,5.3-1.7,7.7c-9.3-0.3-18.7-0.5-28-0.6
	c-0.9-2.2-1.4-4.7-1.4-7.1v-27.8c0-9.4,7-17.1,15.5-17.1s15.5,7.6,15.5,17.1L3698.4,1174.3z M3701.7,1090.5c0,1.3-0.2,2.7-0.5,4
	c-8.6-0.5-17.1-0.9-25.7-1.2c-0.2-0.9-0.2-1.9-0.2-2.8v-24.2c0-8.2,5.9-14.9,13.2-14.9s13.2,6.7,13.2,14.9V1090.5z M3737.4,1268
	h-1.4c-4.6-3.9-5.8-8.9-14.4-12.4c-5.1-0.7-10.2-0.9-15.3-0.5v-16.2c0-12.5,7-22.7,15.5-22.7s15.5,10.2,15.5,22.7L3737.4,1268
	L3737.4,1268z M3744.6,1176.5c0,2.5-0.5,5-1.4,7.3c-9.3-0.4-18.6-0.8-28-1.2c-0.7-2-1-4-1-6.1v-27.8c0-9.4,6.8-17.1,15.2-17.1
	s15.2,7.7,15.2,17.1V1176.5z M3781.6,1268h-31.1v-30.6c0-12.5,7-22.7,15.5-22.7s15.5,10.2,15.5,22.7L3781.6,1268z M3786.9,1179.4
	c0,2.4-0.4,4.7-1.3,6.9c-9.3-0.7-18.8-1.3-28.4-1.8c-0.5-1.7-0.7-3.4-0.7-5.1v-27.9c0-9.4,6.8-17.1,15.2-17.1s15.2,7.6,15.2,17.1
	V1179.4z M3791.5,1078.3c0-7.6,5.3-13.8,11.9-13.8s11.9,6.2,11.9,13.8v32.4c-7.8-1.9-15.7-3.6-23.8-5.2L3791.5,1078.3z M3793.7,1268
	l-2-25.7c-0.9-11.9,3.8-22.1,10.5-22.7s12.9,8.6,13.8,20.5l2.1,27.9L3793.7,1268z M3820.7,1189.4c-8.2-0.8-16.6-1.6-25.2-2.3
	c-0.2-1-0.3-2-0.4-3l-1.7-27.8c-0.6-9.4,4.9-17.5,12.1-18s13.7,6.6,14.2,16l1.7,27.8C3821.6,1184.6,3821.3,1187,3820.7,1189.4
	L3820.7,1189.4z M3836.7,1263.1c-2.4,0.7-5.1,1.5-8.1,2.3l-1.7-22.9c-0.9-11.7,2.8-21.6,8.2-22.1s10.6,8.6,11.4,20.3l1.9,25.6
	C3844.6,1264.9,3840.7,1263.8,3836.7,1263.1L3836.7,1263.1z M3848.5,1192.6c-6.4-0.8-13-1.6-19.6-2.3c0-0.3,0-0.5-0.1-0.8l-1.6-26.1
	c-0.5-8.9,3.4-16.4,8.9-16.8s10.4,6.4,10.9,15.3l1.6,26.2c0.1,1.5,0,3.1-0.2,4.6L3848.5,1192.6z M3864.7,1259.4
	c-1.9,2.4-3,5.5-3,8.6h-7.1l-2.4-23.6c-1.2-11.7,2.2-21.7,7.7-22.4s10.8,8.3,11.9,20l1.8,17.4H3864.7z M4036.4,885.2
	c1.7-6.7,3.6-13.4,5.5-19.9l-0.8,22.8l1.4,0.8L4036.4,885.2z M4043.2,826.3c-6.7,17.2-12.4,34.9-17,52.8l-7.4-4.5v0.1l-20.8,4.7l0,0
	l-5.2,1.2c15.4-22.9,32.4-44.8,50.8-65.4L4043.2,826.3z M4052.1,805.8c-1.5,1.6-3,3.3-4.5,4.9l-3.6,4
	C4046.7,811.7,4049.3,808.8,4052.1,805.8L4052.1,805.8z M4081.3,1267.8h-1.1h-1.1h-1v-2.7l3.2-0.1L4081.3,1267.8L4081.3,1267.8z
	 M4128.2,1267.8h-45.4v-2.7c1.9,0,43.1-0.1,45.4-0.1V1267.8z M4132.5,1267.9h-1.1h-1.1h-0.6v-2.9h3.7l0.1,3L4132.5,1267.9z
	 M4150.8,1077.7v2.8c-0.9-0.1-1.8-0.5-2.4-1.2v-0.5l0,0C4148.5,1078.4,4149.4,1078,4150.8,1077.7L4150.8,1077.7z M4144.9,1199.6h2.8
	c0,0.2,0,0.3,0,0.5v0.4c0,0.5,0,0.9,0,1.1h-0.6l0,0h-0.9h-1.4L4144.9,1199.6z M4137.7,1201.5v-1.4c1.7-0.2,3.8-0.3,6.1-0.4v2.1
	C4141.4,1201.6,4139.3,1201.6,4137.7,1201.5L4137.7,1201.5z M4148.3,1211.5v-8.6c-2.8,0-5.4,0.1-8,0.3h0.8v-0.9c0.9,0,1.8,0,2.8,0
	v0.8h1v-0.7h1.4h0.8v0.7h1v-0.7h0.1l0.1,9.3L4148.3,1211.5z M4149.8,1083.4c-0.5,0.2-1,0.4-1.5,0.6l0,0v-3.3
	c0.6,0.3,1.2,0.5,1.9,0.6l0.5,0.1v1.7l0.2-0.1c-0.5,0-0.9,0.1-1.3,0.2L4149.8,1083.4z M4152,1082.8h0.2v-1.1c1.7,0.2,3.3,0.4,5,0.4
	C4155.4,1082.2,4153.7,1082.4,4152,1082.8L4152,1082.8z M4157.4,1081.3c-1.7,0-3.5-0.1-5.2-0.4v-3.4c1.7-0.3,3.5-0.4,5.2-0.4V1081.3
	z M4158.8,1081.3v-4.2c0.9,0,1.8,0.1,2.6,0.2l0.1,3.9C4160.6,1081.2,4159.7,1081.2,4158.8,1081.3L4158.8,1081.3z M4163.9,910.7
	c-0.6,0.1-1.1,0.2-1.6,0.4c-0.1-0.1-0.2-0.2-0.3-0.2c-0.2-0.2-0.4-0.5-0.5-0.8l0,0c-0.1-0.8,0.8-1.5,2.4-2.1V910.7z M4170.5,910
	c-1.7,0-3.5,0.2-5.2,0.4v-2.9h-0.4c1.5-0.4,3-0.8,4.5-1c0.3,0,0.7-0.1,1.1-0.1V910z M4178.9,705.8c-1.1,0.3-2.2,0.6-3.2,1.1v-5.2
	c1-0.6,2.1-1,3.2-1.4V705.8z M4180.2,705.5v-5.7c0.8-0.3,1.6-0.5,2.5-0.7l0.1,6c-1,0-1.8,0.1-2.6,0.3V705.5z M4333.5,842.8
	c-2.4-0.3-4.7-0.4-6.9-0.4v-3.2c2.2,0.1,4.6,0.2,6.9,0.4V842.8z M4354.4,846.5l0.6,0.4l-0.6,0.1V846.5z M4338.2,843.6L4338.2,843.6
	l-0.4-0.1l-1.2-0.2l-1.7-0.3v-3.2c1.8,0.2,3.6,0.4,5.2,0.7v3.5l1.1,0.3v-3.6c1.1,0.2,2.1,0.5,3.2,0.8v3.7l0.8,0.3
	c-2.4-0.8-4.8-1.5-7.2-2L4338.2,843.6z M4345.5,845.5h0.1v-3.6c0.9,0.3,1.8,0.7,2.6,1.1v3.5l0.9,0.3c-1.2-0.5-2.4-0.9-3.7-1.3
	H4345.5z M4351.5,847.7c-0.7-0.3-1.4-0.6-2.2-0.9h0.1v-3.3c0.6,0.3,1.1,0.6,1.7,0.9v3l0,0l0.7,0.3H4351.5z M4353.2,848.4l-0.7-0.3
	l0.7-0.1V848.4z M4353.2,845.8v1.3l-1.1,0.2V845c0.5,0.3,0.8,0.5,1.2,0.8H4353.2z M4356,849.6l-1.7-0.8v-1c0.8-0.1,1.3-0.2,1.7-0.3
	V849.6z M4359.4,1025.1h-0.7h-0.5v-2.2h1.2V1025.1z M4364,1025.5l-0.7-0.1l-1.5-0.1h-0.5v-2.2c0.9,0.1,1.8,0.1,2.7,0.2V1025.5z
	 M4369.2,1026.3l-1.2-0.2l-1.6-0.3l-1.1-0.2v-2.2c1.3,0.2,2.6,0.4,4,0.7L4369.2,1026.3z M4376.9,1028.1l-1.1-0.3l-1.4-0.3l-1.5-0.3
	l-1.6-0.3h-0.2v-2.2c2.1,0.4,4.1,0.9,5.8,1.4L4376.9,1028.1z M4382.1,1165.9v-2.1c11.3-0.2,18.4,0.8,21.4,1.4
	c-3.7,0.6-7.4,0.9-11.1,1.1c-3.1-0.4-6.6-0.5-10.4-0.5L4382.1,1165.9z M4395.9,1166.5h0.3c2.9-0.2,5.8-0.5,8.6-1l-0.1-0.1h0.1v2.4
	l0.2,0.1c-3-0.7-6.1-1.2-9.2-1.5L4395.9,1166.5z M4407.6,1267.1h-1v-2.8h1V1267.1z M4410.6,1267.1h-2v-2.8h2V1267.1z M4418.5,1267.1
	h-6v-2.8h23.9v2.6h-17.9V1267.1z M4438.3,1267.1h-1v-2.8h1V1267.1z M4594.6,1062.8l-0.8,0.8l-2.7,3.8v-6.7l0.9-1l3.5-0.4v-1l2.9,0.9
	L4594.6,1062.8z M4703.1,1046.3l0.4,0.9l0.1,0.2l0.6,0.7l0.8,0.4l-0.8,5.9l-0.9,4.2l-0.1,0.2l-1.3,1.3l0,0l-0.2-22.2l1.4-2.2
	l0.7-4.7l-2.3-2.4l-2.1-2.2l-0.4-2.6h2.8h3.3l0.1,10.6l-1.4,0.2v0.1l0.2,1.2l1.2-0.2l0.1,6.6h-0.2l-0.9,0.4l-0.7,0.7l-0.4,0.9
	l-0.1,1L4703.1,1046.3z M4706.5,1021.1h1v-0.1v-1.2h-1v-0.7h3.1v3.2h-3.1V1021.1z M4709.6,1040.1l-1,0.5l-0.8,0.8l-0.5,1v0.3
	l-0.5-0.2h-0.2v-6.8l1.4-0.2v-0.1l-0.2-1.2l-1.2,0.2l-0.1-10.5h3.1l0.1,7.3l-1.5,0.2v0.2l0.2,1.4l1.4-0.2l0.1,7.4L4709.6,1040.1z
	 M4891.2,1177.2l-15.5-0.1v-11.5l15.5,0.2V1177.2z M4891.2,1147.2l-15.5,0.2l0.1-35.9l4.7-17.2l10.8,1.4L4891.2,1147.2z
	 M4891.6,924.4l-14.4,0.3h-1l0.1-31.8l15.4,8.8L4891.6,924.4z M4891.6,864.2l-0.8,0.1l-14.5-8.3l0.1-34.9l5.6,3.2l0.3,0.3l3.1,1.8
	l0.3,0.2l0.4,0.1l5.6,3.2L4891.6,864.2z M4891.8,792.8l-15.3-8.7v-24.4l5.5,3.1l0.3,0.2l2.9,1.7l0.2,0.1l6.4,3.7V792.8z
	 M4891.8,731.3l-15.3-8.7v-24.4l15.3,8.7V731.3z M4891.9,669h-0.8l-0.6,0.1l-13.8-7.8v-21l15.3,8.7L4891.9,669z M4892,611.4h-0.1
	h-0.6l-14.5-8.3v-24.8l0.8,0.2l3.5,0.6l4.2,0.4l4.6,0.2h2.1V611.4z M4924.5,1177.3v-88.9l2.4-1l33.1,57.2l-0.3,2.2l-19.7,30.6
	L4924.5,1177.3z M4957.7,1177.5l11-17.1l0.6,0.3l9.8,17L4957.7,1177.5z M5373.1,116.2l-93.9-0.6l-14.5-80.1l122.7,0.8L5373.1,116.2z
	 M5982.8,788.3c1.6-0.6,3-1.7,4-3.1c0.9-1.5,1.7-3.1,2.3-4.8l46-1.1c-2.6,2.5,0,6.8,0,6.8L5982,897.3L5982.8,788.3z M6085.7,1087.3
	c-29.2,7.5-62.2,19.5-83.2,24c-9,1.9-1.5-49.5-1.5-72c11.4-3.1,73.3-19.9,84.7-23V1087.3z M6087.9,897.9V918
	c-22.4,8.8-45.1,17.7-68.5,26.9c-7.4,2.9-14.5,5.8-21.3,8.5l-0.5-0.6L5997,907h-9.1v-6l52.3-112.5l53.7,109.3L6087.9,897.9z
	 M6098.4,892.8L6046.2,786c0,0,1.1,0,1.4-2.3c0.2-1.3,0.1-2.7-0.3-4h51.1L6098.4,892.8z M6879.1,838.4c-2.5-0.2-2.5-1-2.5-4.1v-16.4
	c0-3.2,0-4,2.7-4.1L6879.1,838.4z M6883.2,813.8c2.8,0.1,2.7,0.9,2.7,4.1v16.5c0,3.1,0,3.9-2.5,4.1L6883.2,813.8z"/>
<path class="st0" d="M3060.3,969L3060.3,969z"/>
<path class="st0" d="M3031.1,910L3031.1,910C3031.4,910.8,3031.6,911.4,3031.1,910z"/>
<path class="st0" d="M3004.3,969.1L3004.3,969.1C3004.6,969,3004.7,969,3004.3,969.1z"/>
<path class="st0" d="M3004.4,967.4c0,0.1-0.1,0.2-0.1,0.3C3004,967.5,3004.1,967.4,3004.4,967.4z"/>
<path class="st0" d="M4043.8,814.7l-0.3,0.4L4043.8,814.7L4043.8,814.7z"/>
<polygon class="st0" points="4148.2,1212.7 4148.2,1212 4148.2,1212 "/>
<polygon class="st0" points="4148.2,1213.9 4148.2,1213.9 4148.2,1212.9 4148.2,1213.9 4148.2,1214.3 4148.2,1216.9 4148.2,1216.9 
	"/>
<polygon class="st0" points="4148.2,1218.3 4148.2,1217.5 4148.2,1217.5 4148.2,1217.4 "/>
<path class="st0" d="M4148.3,1219.5L4148.3,1219.5v0.9v2.1l0,0V1219.5z"/>
<polygon class="st0" points="4148.3,1223.8 4148.3,1223.1 4148.3,1223.1 "/>
<polygon class="st0" points="4148.3,1225 4148.3,1225 4148.3,1225.5 4148.3,1226.3 4148.3,1227.7 4148.3,1228 4148.3,1228 "/>
<polygon class="st0" points="4148.3,1229.3 4148.3,1228.6 4148.3,1228.6 4148.3,1230.5 "/>
<polygon class="st0" points="4148.3,1230.5 4148.3,1230.5 4148.4,1233.4 4148.4,1233.6 4148.4,1233.6 "/>
<path class="st0" d="M4148.4,1234.9v-0.7l0,0V1234.9z"/>
<polygon class="st0" points="4148.4,1236.1 4148.4,1236.1 4148.4,1237.6 4148.4,1238 4148.4,1239.1 4148.4,1239.1 "/>
<polygon class="st0" points="4148.4,1241.6 4148.4,1241.6 4148.4,1240.4 4148.4,1239.7 4148.4,1239.7 4148.4,1240.1 4148.4,1244.8 
	4148.4,1244.8 "/>
<polygon class="st0" points="4148.4,1246.2 4148.4,1245.4 4148.4,1245.4 "/>
<polygon class="st0" points="4148.4,1247.3 4148.4,1247.3 4148.4,1247.1 4148.5,1250 4148.5,1250 "/>
<path class="st0" d="M4148.5,1251.2v-0.6V1251.2z"/>
<polygon class="st0" points="4148.5,1252.5 4148.5,1256 4148.5,1256.1 4148.5,1256.5 4148.5,1256.2 4148.5,1256.1 "/>
<path class="st0" d="M4148.5,1256.6L4148.5,1256.6L4148.5,1256.6z"/>
<polygon class="st0" points="4148.5,1263 4148.5,1262.9 4148.5,1262.9 4148.5,1258.6 4148.5,1258 4148.5,1258.4 4148.5,1262.8 
	4148.5,1262.9 4148.5,1263 4148.5,1264.2 4148.5,1263.6 "/>
<polygon class="st0" points="4148.6,1271.2 4148.6,1271.2 4148.6,1268.8 4148.6,1268.7 4148.6,1267.9 4148.6,1265.1 4148.6,1265 
	4148.5,1264.6 4148.6,1264.9 4148.6,1265 4148.6,1267.9 4148.6,1268.7 4148.6,1268.8 4148.6,1273.4 "/>
<path class="st0" d="M4207.2,401l0.5-0.1l0,0L4207.2,401z"/>
<path class="st0" d="M4208.4,400.7h0.2h0.1H4208.4z"/>
<path class="st0" d="M4209.5,400.4L4209.5,400.4z"/>
<path class="st0" d="M4211.5,399.9L4211.5,399.9z"/>
<path class="st0" d="M4211.7,399.9L4211.7,399.9L4211.7,399.9h0.2h0.1h0.1H4211.7z"/>
<path class="st0" d="M4212.1,399.8L4212.1,399.8z"/>
<path class="st0" d="M4212.3,399.8L4212.3,399.8L4212.3,399.8z"/>
<path class="st0" d="M4213,399.6l-0.5,0.1l0,0L4213,399.6z"/>
<path class="st0" d="M4213.4,399.5L4213.4,399.5z"/>
<path class="st0" d="M4213.4,399.5L4213.4,399.5h0.2h0.2l0,0h0.1h0.1h0.1H4213.4z"/>
<path class="st0" d="M4341,1026.1L4341,1026.1z"/>
<path class="st0" d="M4341.1,1026.1L4341.1,1026.1z"/>
<path class="st0" d="M4341.2,1026.1h0.2H4341.2z"/>
<path class="st0" d="M4341.7,1026L4341.7,1026z"/>
<path class="st0" d="M4394.4,1166.3h-0.2l1.3,0.1L4394.4,1166.3z"/>
<polygon class="st0" points="4892.8,793.4 4892.8,793.4 4892.9,793.4 "/>
<polygon class="st0" points="4728.1,1088.7 4728,1089 4727.9,1088.9 "/>
<polygon class="st0" points="4701.8,1023.7 4705.1,1023.7 4702.1,1023.7 "/>
<path class="st0" d="M6878.3,904.4v2.2V904.4z"/>
</svg>
