<?xml version="1.0" encoding="utf-8"?>
<!-- Generator: Adobe Illustrator 19.1.0, SVG Export Plug-In . SVG Version: 6.00 Build 0)  -->
<svg version="1.1" id="Layer_1" xmlns="http://www.w3.org/2000/svg" xmlns:xlink="http://www.w3.org/1999/xlink" x="0px" y="0px"
	 viewBox="0 0 144 144" style="enable-background:new 0 0 144 144;" xml:space="preserve">
<style type="text/css">
	.st0{fill:#FFFFFF;}
	.st1{fill:#B0C6D2;}
	.st2{fill:#5C6670;}
	.st3{fill:#FFFFFF;stroke:#333E48;stroke-width:1.5233;stroke-miterlimit:10;}
	.st4{fill:#333E48;}
	.st5{fill:#E2231A;}
	.st6{fill:#45BCD8;}
	.st7{fill:#FF8C47;}
	.st8{fill:#D0D5D6;}
	.st9{fill:#F6F9FB;}
	.st10{fill:#008FBE;}
	.st11{fill:#C3C6C8;}
	.st12{fill:#FF6C0C;}
	.st13{fill:#E7EAED;}
	.st14{fill:#AAB5BE;}
	.st15{fill:#EF8425;}
	.st16{fill:#0391C2;}
	.st17{fill:#465259;}
	.st18{fill:#732282;}
	.st19{fill:#293B4D;}
	.st20{fill:none;stroke:#333E48;stroke-width:1.3501;stroke-miterlimit:10;}
	.st21{fill:#FFFFFF;stroke:#333E48;stroke-width:2.0566;stroke-miterlimit:10;}
	.st22{fill:#F1F2F2;}
	.st23{opacity:0.11;fill:#010101;}
	.st24{fill:#F7A800;}
	.st25{fill:none;stroke:#5C6670;stroke-width:0.8126;stroke-miterlimit:10;}
	.st26{fill:#B34FC5;}
	.st27{fill:#FFFFFF;stroke:#FFFFFF;stroke-width:4.8756;stroke-miterlimit:10;}
	.st28{fill:#364A5E;}
	.st29{fill:#5E6E7F;}
	.st30{fill:#FBFBFB;}
	.st31{fill:#63A70A;}
	.st32{fill:#C4D600;}
	.st33{fill:#F5F6F7;}
	.st34{fill:#D1D5D7;}
	.st35{fill:#FFFFFF;stroke:#FFFFFF;stroke-width:3.7892;stroke-miterlimit:10;}
	.st36{fill:#A4A9AD;}
	.st37{fill:#FBFADB;}
	.st38{fill:#70B344;}
	.st39{fill:#FFFFFF;stroke:#5C6670;stroke-width:2.7605;stroke-miterlimit:10;}
	.st40{fill:none;stroke:#732282;stroke-width:0.9879;stroke-miterlimit:10;}
	.st41{fill:#CDD3DA;}
	.st42{fill:#C2531A;}
	.st43{fill:#005D84;}
	.st44{fill:none;stroke:#C4D600;stroke-width:1.6258;stroke-miterlimit:10;}
	.st45{fill:none;stroke:#D0D5D6;stroke-width:1.7199;stroke-miterlimit:10;}
</style>
<g>
	<g>
		<path class="st0" d="M20.2,112.4c-6.2,0-12.1-1.3-17.7-3.7c-0.4-0.2-0.7-0.6-0.7-1v-2.1c0-0.6,0.5-1.1,1.1-1.1h11V39.5
			c0-1.3,0.5-2.6,1.4-3.5c0.9-0.9,2.2-1.4,3.5-1.4h106.8c1.3,0,2.6,0.5,3.5,1.4c0.9,0.9,1.4,2.2,1.4,3.5v64.9h11
			c0.6,0,1.1,0.5,1.1,1.1v2.1c0,0.4-0.3,0.9-0.7,1c-5.6,2.5-11.5,3.7-17.7,3.7H20.2z"/>
		<path class="st0" d="M125.7,35.7c1,0,2,0.4,2.7,1.1c0.8,0.7,1.1,1.7,1.1,2.7v66h12.1v2.1c-5.3,2.3-11.1,3.6-17.2,3.6H20.2
			c-6.1,0-12-1.3-17.2-3.6v-2.1h12.1v-66c0-1,0.4-1.9,1.1-2.7c0.7-0.7,1.7-1.1,2.7-1.1H125.7 M125.7,33.5H18.9
			c-1.6,0-3.1,0.6-4.3,1.8c-1.1,1.1-1.8,2.7-1.8,4.3v63.7H3c-1.3,0-2.3,1-2.3,2.3v2.1c0,0.9,0.5,1.7,1.3,2.1
			c5.7,2.5,11.8,3.8,18.1,3.8h104.2c6.3,0,12.4-1.3,18.1-3.8c0.8-0.4,1.3-1.2,1.3-2.1v-2.1c0-1.3-1-2.3-2.3-2.3h-9.9V39.5
			c0-1.6-0.6-3.2-1.8-4.3C128.9,34.1,127.3,33.5,125.7,33.5L125.7,33.5z"/>
	</g>
	<g>
		<g>
			<path class="st28" d="M128.4,36.8c-0.7-0.7-1.7-1.1-2.7-1.1H18.9c-1,0-2,0.4-2.7,1.1c-0.7,0.7-1.1,1.7-1.1,2.7v66h114.4v-66
				C129.5,38.6,129.1,37.6,128.4,36.8z"/>
			<g>
				<path class="st29" d="M73.9,38.7c0,0.9-0.7,1.6-1.6,1.6c-0.9,0-1.6-0.7-1.6-1.6c0-0.9,0.7-1.6,1.6-1.6
					C73.2,37,73.9,37.8,73.9,38.7z"/>
				<path class="st9" d="M73,38.7c0,0.4-0.3,0.7-0.7,0.7c-0.4,0-0.7-0.3-0.7-0.7c0-0.4,0.3-0.7,0.7-0.7C72.7,38,73,38.3,73,38.7z"/>
			</g>
		</g>
		<g>
			<path class="st14" d="M3,107.7c5.3,2.3,11.1,3.6,17.2,3.6h104.2c6.1,0,12-1.3,17.2-3.6H3z"/>
			<rect x="3" y="105.5" class="st13" width="138.6" height="2.1"/>
			<rect x="60.3" y="105.5" class="st28" width="24.1" height="1.1"/>
		</g>
		<rect x="21.1" y="41.6" class="st9" width="102.4" height="63.9"/>
		<path class="st38" d="M120,101.9H32c-4.1,0-7.3-3.3-7.3-7.3V45.1h87.9c4.1,0,7.3,3.3,7.3,7.3V101.9z"/>
		<g>
			<g>
				<g>
					<polygon class="st32" points="64.8,55.6 62.2,55.6 61.4,59.5 65.6,59.5 					"/>
					<polygon class="st32" points="55.9,57.3 53.6,58.6 54.8,62.3 58.5,60.2 					"/>
					<polygon class="st32" points="49,63.2 47.6,65.5 50.6,68.1 52.7,64.5 					"/>
					<polygon class="st32" points="46,71.8 46,74.5 49.8,75.2 49.8,71 					"/>
					<polygon class="st32" points="47.6,80.8 49,83.1 52.7,81.8 50.6,78.2 					"/>
					<polygon class="st32" points="53.6,87.7 55.9,89 58.5,86 54.8,83.9 					"/>
					<polygon class="st32" points="62.2,90.7 64.8,90.7 65.6,86.8 61.4,86.8 					"/>
					<polygon class="st32" points="71.1,89 73.4,87.7 72.2,83.9 68.5,86 					"/>
					<polygon class="st32" points="78,83.1 79.4,80.8 76.4,78.2 74.3,81.8 					"/>
					<polygon class="st32" points="81.1,74.5 81.1,71.8 77.2,71 77.2,75.2 					"/>
					<polygon class="st32" points="79.4,65.5 78,63.2 74.3,64.5 76.4,68.1 					"/>
					<polygon class="st32" points="73.4,58.6 71.1,57.3 68.5,60.2 72.2,62.3 					"/>
				</g>
			</g>
			<path class="st0" d="M63.5,59.3c-7.6,0-13.8,6.2-13.8,13.8c0,7.6,6.2,13.8,13.8,13.8c7.6,0,13.8-6.2,13.8-13.8
				C77.3,65.5,71.2,59.3,63.5,59.3z M63.5,77c-2.1,0-3.8-1.7-3.8-3.8c0-2.1,1.7-3.8,3.8-3.8c2.1,0,3.8,1.7,3.8,3.8
				C67.3,75.3,65.6,77,63.5,77z"/>
			<path class="st32" d="M63.5,66.5c-3.7,0-6.6,3-6.6,6.6c0,3.7,3,6.6,6.6,6.6c3.7,0,6.6-3,6.6-6.6C70.1,69.5,67.2,66.5,63.5,66.5z
				 M63.5,76.5c-1.8,0-3.3-1.5-3.3-3.3c0-1.8,1.5-3.3,3.3-3.3c1.8,0,3.3,1.5,3.3,3.3C66.8,75,65.3,76.5,63.5,76.5z"/>
		</g>
		<g>
			<g>
				<g>
					<polygon class="st32" points="89.8,67.7 87.9,68.2 88,71.2 91.1,70.4 					"/>
					<polygon class="st32" points="83.6,70.7 82.1,72.1 83.8,74.6 86.1,72.4 					"/>
					<polygon class="st32" points="79.7,76.4 79.1,78.3 81.8,79.7 82.6,76.6 					"/>
					<polygon class="st32" points="79.1,83.3 79.6,85.2 82.6,85 81.8,81.9 					"/>
					<polygon class="st32" points="82.1,89.5 83.5,90.9 86,89.3 83.7,87 					"/>
					<polygon class="st32" points="87.8,93.4 89.7,93.9 91,91.3 88,90.4 					"/>
					<polygon class="st32" points="94.6,93.9 96.6,93.4 96.4,90.4 93.3,91.3 					"/>
					<polygon class="st32" points="100.9,91 102.3,89.6 100.7,87.1 98.4,89.3 					"/>
					<polygon class="st32" points="104.8,85.3 105.3,83.4 102.6,82 101.8,85.1 					"/>
					<polygon class="st32" points="105.3,78.4 104.8,76.5 101.8,76.7 102.7,79.7 					"/>
					<polygon class="st32" points="102.4,72.2 101,70.8 98.5,72.4 100.7,74.7 					"/>
					<polygon class="st32" points="96.7,68.3 94.7,67.7 93.4,70.4 96.5,71.3 					"/>
				</g>
			</g>
			<path class="st0" d="M89.6,70.7c-5.6,1.5-8.9,7.2-7.5,12.8c1.5,5.6,7.2,8.9,12.8,7.5c5.6-1.5,8.9-7.2,7.5-12.8
				C100.9,72.6,95.1,69.2,89.6,70.7z M93,83.6c-1.5,0.4-3.1-0.5-3.5-2.1C89,80,89.9,78.4,91.5,78c1.5-0.4,3.1,0.5,3.5,2.1
				C95.4,81.6,94.5,83.2,93,83.6z"/>
			<path class="st32" d="M90.9,76c-2.7,0.7-4.3,3.5-3.6,6.1c0.7,2.7,3.5,4.3,6.1,3.6c2.7-0.7,4.3-3.5,3.6-6.1
				C96.4,76.9,93.6,75.3,90.9,76z M92.9,83.3c-1.3,0.4-2.7-0.4-3.1-1.8c-0.4-1.3,0.4-2.7,1.8-3.1c1.3-0.4,2.7,0.4,3.1,1.8
				C95,81.5,94.2,82.9,92.9,83.3z"/>
		</g>
	</g>
</g>
</svg>
